<?xml version="1.0" standalone="no"?>
<!DOCTYPE svg PUBLIC "-//W3C//DTD SVG 20010904//EN"
 "http://www.w3.org/TR/2001/REC-SVG-20010904/DTD/svg10.dtd">
<svg version="1.0" xmlns="http://www.w3.org/2000/svg"
 width="300.000000pt" height="169.000000pt" viewBox="0 0 300.000000 169.000000"
 preserveAspectRatio="xMidYMid meet">
<metadata>
Created by potrace 1.10, written by Peter Selinger 2001-2011
</metadata>
<g transform="translate(0.000000,169.000000) scale(0.100000,-0.100000)"
fill="#000000" stroke="none">
<path d="M639 1667 c-19 -13 -72 -49 -119 -80 -47 -32 -95 -64 -108 -73 -13
-9 -32 -35 -42 -59 -27 -62 -133 -256 -193 -352 l-52 -83 -43 0 c-41 0 -44 -2
-62 -42 -11 -24 -19 -52 -19 -63 1 -16 2 -15 8 5 5 14 16 40 25 58 15 29 21
32 59 32 59 0 145 -27 156 -49 9 -16 5 -19 -30 -24 -51 -7 -82 -35 -115 -105
-25 -53 -59 -190 -50 -199 3 -3 8 12 11 33 11 65 47 173 61 185 8 6 14 18 14
25 0 17 37 41 73 48 31 5 36 -8 9 -23 -26 -14 -57 -80 -87 -186 -14 -49 -35
-117 -46 -150 -11 -33 -22 -68 -24 -77 -2 -9 -9 -27 -16 -40 -7 -13 -12 -26
-11 -30 4 -13 -16 -9 -21 5 -3 6 -5 -15 -5 -48 0 -43 2 -53 7 -35 5 14 17 43
28 65 19 38 74 205 124 379 22 77 23 78 40 57 35 -44 104 -53 157 -21 34 21
102 27 102 10 0 -5 -12 -10 -27 -10 -21 0 -24 -3 -14 -9 8 -5 20 -7 27 -4 18
7 11 -23 -20 -89 -27 -56 -33 -83 -17 -74 5 3 14 -1 21 -9 7 -8 18 -15 26 -15
7 0 15 -4 18 -9 5 -8 -66 -125 -83 -135 -5 -4 -24 -25 -42 -49 l-33 -42 36 34
36 33 32 -18 c45 -27 108 -137 196 -344 l23 -55 -2 41 c-1 23 -5 40 -8 38 -3
-1 -25 38 -48 89 -24 51 -52 109 -62 129 -11 21 -17 44 -13 50 4 7 4 10 -1 6
-5 -5 -13 2 -19 15 -6 12 -31 31 -55 43 -50 24 -42 37 24 41 41 2 105 -13 105
-25 0 -4 18 -27 40 -52 22 -25 37 -37 34 -27 -4 11 -1 17 8 17 7 0 30 9 51 20
49 26 123 26 204 -2 87 -29 91 -23 64 96 -20 85 -21 101 -9 151 7 30 16 55 20
55 3 0 16 -13 28 -30 12 -16 18 -30 14 -30 -3 0 -2 -6 4 -12 17 -22 59 -139
78 -218 9 -41 19 -70 21 -64 10 30 -59 238 -114 349 l-25 49 -19 -23 c-11 -13
-20 -32 -20 -42 -1 -10 -3 -23 -4 -29 -1 -5 -3 -16 -4 -22 -3 -30 -21 20 -21
60 0 45 18 89 44 111 13 11 21 9 50 -12 58 -45 166 -158 166 -176 1 -9 10 -32
21 -51 11 -19 17 -26 13 -15 -3 11 -9 31 -12 44 -5 23 -4 23 22 6 14 -9 33
-14 42 -11 12 5 15 2 10 -11 -6 -15 -5 -15 13 1 21 19 22 19 33 -23 3 -11 7
-11 20 2 14 15 17 14 34 -4 22 -24 60 -47 50 -30 -5 7 -1 9 8 5 9 -3 14 -10
11 -14 -5 -7 53 -40 72 -40 4 0 20 -7 35 -14 19 -10 27 -11 25 -3 -1 7 -9 15
-17 20 -8 4 6 5 32 2 55 -7 90 6 188 70 44 28 68 50 64 57 -4 7 -3 8 5 4 6 -4
8 -13 5 -19 -4 -7 7 1 24 17 18 17 32 34 32 39 0 6 -8 3 -18 -6 -24 -22 -27
-21 -29 5 -1 15 1 18 6 10 9 -14 37 13 70 68 24 40 30 77 7 48 -17 -23 -33
-23 -46 2 -13 24 5 28 18 4 8 -15 10 -15 15 0 4 9 1 16 -5 16 -6 0 -17 8 -25
18 -8 9 -12 12 -9 5 4 -6 2 -14 -3 -17 -11 -7 -2 -46 10 -46 5 0 9 -5 9 -11 0
-5 -6 -7 -12 -3 -7 4 -4 -3 7 -16 17 -20 17 -22 3 -17 -12 4 -15 2 -11 -9 6
-16 -16 -16 -30 1 -5 6 -7 3 -4 -7 3 -9 0 -22 -8 -28 -8 -6 -11 -18 -9 -25 3
-7 -4 -19 -16 -25 -12 -6 -18 -16 -14 -23 4 -7 4 -9 0 -5 -5 4 -30 -8 -56 -26
-98 -68 -187 -71 -314 -12 -107 49 -139 77 -170 146 -29 63 -37 136 -28 233
l5 57 33 0 c21 0 34 -5 34 -12 0 -7 3 -23 6 -35 6 -21 3 -23 -29 -23 -48 0
-56 -17 -12 -26 22 -4 41 -2 50 6 8 7 15 9 15 4 0 -5 4 -4 8 1 15 21 118 82
149 88 31 6 32 5 38 -36 4 -23 9 -50 11 -59 1 -10 -2 -20 -8 -24 -6 -4 -5 -10
3 -15 11 -7 11 -9 -1 -9 -9 0 -26 7 -38 16 -18 12 -22 25 -22 67 0 37 -3 48
-10 37 -5 -8 -10 -34 -10 -57 0 -38 4 -45 37 -67 34 -24 38 -24 55 -9 21 18
24 53 6 53 -9 0 -10 3 -2 8 12 7 11 18 -4 68 l-10 32 77 6 c85 8 178 -1 188
-17 4 -6 -11 -8 -41 -5 -28 4 -44 2 -39 -3 5 -5 28 -10 52 -11 34 -1 47 -7 65
-30 18 -24 29 -29 52 -25 l29 4 -31 2 c-25 1 -33 6 -36 26 -6 27 7 44 15 23 4
-10 6 -9 6 1 1 8 9 20 19 28 15 13 15 13 -5 4 -25 -13 -43 -14 -43 -3 0 4 15
12 34 18 27 8 35 7 44 -5 10 -14 11 -14 6 2 -5 13 -2 16 10 11 11 -4 16 -19
16 -48 0 -52 -9 -66 -51 -76 l-34 -9 34 2 c27 2 35 -2 37 -18 5 -33 -6 -57
-23 -50 -13 4 -14 3 -3 -10 21 -25 28 -18 35 33 3 26 9 63 12 82 l6 35 9 -50
c13 -71 14 -113 1 -126 -7 -7 -9 6 -7 43 1 29 0 40 -2 23 -3 -16 -9 -52 -14
-79 -9 -42 -8 -51 7 -63 17 -14 17 -14 -2 -11 -26 5 -59 -31 -62 -68 -2 -16
-4 -83 -6 -149 -2 -66 -2 -83 0 -37 3 69 7 82 21 83 10 0 12 3 5 6 -7 2 -13
11 -13 20 0 11 7 13 30 8 16 -4 71 -1 122 5 51 6 104 12 118 14 14 1 58 12 98
24 227 69 268 78 311 67 20 -5 22 -8 10 -16 -11 -7 -9 -9 9 -9 12 0 22 -4 22
-10 0 -5 -6 -10 -14 -10 -16 0 -56 -47 -55 -64 0 -6 5 -1 11 12 6 13 17 21 24
18 8 -3 11 0 8 8 -6 15 28 18 37 3 4 -5 5 -26 4 -46 -2 -20 -6 -74 -9 -121
-12 -188 -18 -230 -32 -230 -8 0 -14 -4 -14 -10 0 -5 5 -10 10 -10 6 0 10 -34
10 -82 1 -88 12 -118 46 -118 17 1 16 3 -6 19 -24 19 -25 21 -19 113 3 51 14
187 24 302 l19 209 -40 33 c-44 38 -73 42 -149 18 -203 -62 -404 -104 -500
-104 -43 0 -45 1 -45 30 0 17 5 30 10 30 6 0 10 -4 10 -10 0 -5 6 -10 14 -10
9 0 14 11 13 34 -1 26 8 44 36 76 21 22 45 58 55 78 9 20 18 39 19 41 1 2 12
-7 24 -20 14 -17 19 -19 15 -7 -3 10 -8 41 -12 70 l-7 53 31 -42 c43 -58 68
-71 41 -21 -13 25 -5 35 16 18 19 -15 19 -13 0 40 -8 23 -15 44 -15 46 0 2 13
-5 29 -14 16 -9 32 -14 35 -11 3 3 -3 29 -14 57 -25 65 -25 72 0 72 11 0 20 4
20 10 0 5 23 16 51 24 28 9 57 20 64 26 6 5 44 23 83 39 39 16 91 43 114 58
24 16 78 47 121 69 43 21 90 51 104 66 l26 27 -24 6 c-13 3 -51 -2 -84 -11
-33 -8 -82 -17 -110 -18 -27 -2 -110 -8 -184 -14 -73 -6 -137 -9 -142 -6 -7 4
-102 -8 -171 -22 -27 -5 -28 -4 -28 35 0 62 -28 170 -63 239 -17 34 -34 62
-38 62 -4 0 9 -29 27 -64 36 -67 52 -124 61 -219 l6 -59 -30 15 c-48 25 -149
47 -255 57 -57 5 -104 14 -108 20 -5 8 -9 7 -13 -4 -4 -10 -18 -16 -38 -16
-51 0 -193 -29 -269 -55 -39 -13 -70 -21 -70 -18 0 3 -8 0 -17 -8 -41 -33 -65
-42 -74 -27 -7 10 -9 9 -9 -4 0 -10 -16 -26 -38 -37 -22 -11 -60 -36 -85 -55
-55 -42 -57 -39 -57 87 0 94 16 182 46 256 15 38 19 41 55 41 40 0 109 -29
146 -63 12 -11 44 -26 70 -32 42 -11 45 -14 23 -19 -14 -3 -41 -7 -60 -9 -39
-4 -90 -26 -90 -39 0 -4 -9 -17 -20 -28 -11 -11 -16 -20 -11 -20 5 0 19 14 31
30 12 17 30 30 40 30 10 0 22 5 25 10 3 6 23 10 43 10 21 0 47 7 59 15 12 8
23 12 26 7 2 -4 2 -2 1 5 -2 6 4 14 12 17 8 3 14 17 14 31 0 28 -3 29 -31 14
-15 -8 -24 -7 -36 3 -14 11 -15 11 -11 -2 3 -10 16 -14 37 -12 21 1 31 -2 31
-12 0 -37 -87 -31 -141 9 -131 96 -128 95 -176 95 -58 0 -53 -6 10 -12 84 -9
65 -20 -28 -17 -85 3 -187 -13 -210 -33 -11 -10 40 -1 103 18 23 6 44 8 47 3
3 -4 12 -6 20 -2 10 3 15 -1 15 -11 0 -9 -6 -18 -12 -20 -7 -2 -29 -9 -48 -16
-19 -7 -55 -16 -80 -20 l-45 -7 40 -2 c38 -2 39 -3 13 -12 -14 -6 -28 -16 -31
-23 -7 -17 4 -67 13 -61 4 2 15 -4 25 -15 10 -11 24 -16 33 -13 11 5 13 3 7
-8 -6 -11 -5 -12 6 -1 22 20 29 14 27 -28 -1 -38 -27 -67 -29 -32 0 10 -3 12
-6 5 -2 -7 -18 -13 -34 -13 -17 0 -40 -5 -51 -11 -20 -11 -20 -10 -4 12 9 13
16 33 16 44 0 13 -7 6 -21 -22 -20 -41 -36 -49 -51 -28 -4 6 -8 2 -8 -7 0 -10
-7 -18 -15 -18 -9 0 -12 6 -9 18 5 16 5 16 -6 0 -11 -19 -90 -26 -90 -9 0 16
-84 -7 -101 -28 -12 -15 -19 -17 -22 -9 -3 8 -6 5 -6 -5 -1 -27 -40 -78 -53
-71 -7 4 -8 2 -4 -4 3 -6 -3 -26 -14 -44 -11 -18 -20 -28 -21 -23 -1 11 -9
-15 -32 -106 -8 -31 -24 -76 -35 -98 -12 -23 -22 -48 -22 -55 0 -8 -15 -21
-34 -30 -36 -17 -60 -21 -54 -8 8 15 58 122 74 159 10 21 17 41 16 44 -1 4 10
37 24 75 14 38 27 74 28 81 1 7 5 16 9 19 4 4 7 16 7 26 0 11 4 17 10 13 18
-11 50 69 43 110 -6 36 -5 37 17 25 13 -7 32 -22 44 -34 18 -19 19 -19 6 -1
-8 11 -21 26 -29 33 -13 10 -10 12 13 12 15 0 25 4 21 9 -3 5 -21 7 -39 4 -43
-7 -106 13 -128 41 -10 11 -18 16 -18 9 0 -12 27 -43 38 -43 4 0 20 -12 35
-25 l28 -25 -20 -37 c-10 -21 -42 -101 -70 -178 -92 -251 -122 -315 -143 -315
-14 0 -18 5 -14 16 12 31 18 94 12 119 -7 26 -43 48 -99 60 l-29 6 18 27 c52
78 131 215 185 322 54 106 102 170 129 170 7 0 181 120 205 141 18 17 -3 9
-36 -14z m396 -159 c-7 -24 -16 -55 -19 -70 -8 -34 -28 -36 -76 -7 l-35 22 45
39 c41 36 73 56 92 57 4 1 1 -18 -7 -41z m1765 -93 c0 -15 -169 -56 -285 -69
-33 -4 -75 -12 -94 -18 -25 -8 -49 -7 -89 2 -41 9 -57 9 -66 0 -8 -9 -4 -10
18 -4 19 5 27 3 22 -4 -4 -6 2 -8 16 -5 20 5 -19 -22 -128 -89 -17 -10 -60
-25 -95 -32 -73 -16 -117 -32 -139 -50 -13 -12 -68 -32 -171 -65 -19 -6 -45
-11 -57 -11 -11 0 -23 -4 -26 -8 -9 -14 -98 -14 -107 0 -7 10 -9 9 -9 -3 0
-14 -6 -15 -45 -7 -33 7 -50 7 -60 -2 -13 -11 -239 -23 -350 -20 -122 4 -226
1 -260 -9 -34 -9 -29 -10 35 -4 133 13 213 4 224 -22 3 -9 2 -13 -4 -10 -15 9
-60 -45 -61 -74 -1 -14 -1 -30 0 -35 1 -5 -5 -3 -14 4 -22 18 -57 92 -48 101
5 4 26 9 48 12 40 4 40 4 -7 5 -27 1 -48 -2 -48 -7 0 -5 -7 -17 -16 -25 -14
-15 -14 -16 5 -16 12 0 21 -4 21 -9 0 -5 3 -17 7 -26 5 -14 2 -16 -18 -10 -13
4 -27 13 -31 19 -6 8 -10 8 -16 -1 -9 -14 -84 -25 -76 -12 3 5 -5 9 -18 9 -17
0 -19 -3 -9 -9 23 -15 -2 -18 -94 -10 -49 4 -110 8 -135 8 -98 3 41 42 247 71
71 10 112 18 93 19 -19 0 -78 -6 -130 -13 -70 -10 -97 -11 -102 -2 -6 8 -8 8
-8 0 0 -7 -20 -17 -44 -23 -24 -6 -51 -13 -60 -17 -9 -3 -16 -2 -16 4 0 5 12
13 26 16 15 4 25 9 22 11 -2 2 -48 -7 -103 -20 -118 -29 -116 -29 -109 -11 11
30 444 166 481 152 14 -6 12 -10 -14 -26 -28 -17 -51 -40 -40 -40 3 0 31 16
62 35 32 19 67 37 77 41 10 3 15 10 12 16 -4 6 2 8 17 3 19 -5 21 -4 9 5 -12
9 -8 10 19 6 24 -4 40 -1 52 9 9 9 57 25 105 35 49 10 139 30 199 44 225 53
757 133 935 141 176 8 305 21 375 38 72 18 75 18 75 12z m-830 -35 c135 -38
114 -55 -25 -20 -43 11 -94 19 -114 19 -25 -1 -28 -3 -11 -5 107 -16 204 -43
160 -44 -92 -2 -352 -45 -579 -96 -84 -19 -156 -32 -159 -29 -3 3 0 5 6 5 7 0
12 5 12 10 0 16 -15 12 -40 -10 -13 -11 -30 -21 -39 -21 -55 -5 -69 -7 -94
-18 -48 -19 -52 -12 -17 24 37 39 198 125 270 146 25 7 50 16 55 20 6 4 46 14
90 23 44 8 89 17 100 20 11 3 85 3 165 1 110 -2 163 -8 220 -25z m660 -47
c-19 -9 -62 -19 -95 -24 -33 -5 -79 -12 -102 -15 -31 -5 -43 -3 -43 6 0 7 7
10 15 7 8 -4 17 -2 19 2 5 8 34 13 156 27 30 3 57 8 59 10 2 2 9 4 15 3 6 0
-5 -8 -24 -16z m-2128 -35 c-7 -7 -12 -8 -12 -2 0 14 12 26 19 19 2 -3 -1 -11
-7 -17z m1878 2 c0 -6 -24 -22 -52 -35 -29 -14 -47 -25 -40 -25 7 0 27 8 45
17 18 9 57 21 87 25 118 17 188 23 184 16 -3 -4 -12 -8 -21 -8 -9 0 -25 -7
-35 -17 -12 -10 -18 -12 -18 -4 0 7 -5 9 -10 6 -6 -4 -7 -11 -4 -17 4 -7 2 -8
-5 -4 -6 4 -25 -4 -43 -19 -36 -30 -84 -56 -159 -85 l-54 -20 -22 25 c-30 34
-29 42 8 64 18 11 25 21 18 23 -13 4 62 52 96 61 11 2 21 5 23 6 1 0 2 -4 2
-9z m-1376 -12 c3 -7 7 -43 10 -79 l6 -66 -203 -50 c-112 -28 -241 -67 -286
-86 -44 -20 -81 -34 -81 -32 0 24 84 185 123 237 54 71 73 84 110 72 12 -4 29
-9 37 -10 8 -2 26 -6 41 -9 15 -4 49 2 85 14 67 23 153 28 158 9z m-521 -33
c-3 -9 -8 -14 -10 -11 -3 3 -2 9 2 15 9 16 15 13 8 -4z m1732 -40 c-16 -14
-33 -25 -37 -25 -5 0 -8 -4 -8 -10 0 -5 6 -7 14 -4 21 8 52 -42 37 -60 -20
-24 -30 -73 -18 -86 9 -8 8 -14 -4 -23 -8 -7 -19 -21 -23 -32 -8 -22 -9 -21
-58 48 -27 38 -56 40 -90 6 -35 -34 -38 -35 -33 -9 2 11 0 18 -6 15 -5 -4 -11
0 -14 7 -3 8 -15 14 -26 15 -31 3 -35 11 -13 28 15 13 11 12 -21 -1 -22 -10
-59 -19 -83 -22 -36 -3 -42 -7 -37 -23 5 -14 2 -17 -9 -13 -9 3 -13 11 -9 17
4 6 0 8 -10 4 -9 -3 -18 -3 -21 1 -3 5 16 14 42 20 115 31 219 73 233 94 3 5
34 13 69 19 35 5 82 21 104 34 52 31 59 31 21 0z m-1235 -105 c-14 -4 -34 -8
-45 -8 -16 0 -15 2 5 8 14 4 34 8 45 8 16 0 15 -2 -5 -8z m930 -50 c0 -12 -42
-31 -50 -23 -6 5 30 33 42 33 4 0 8 -5 8 -10z m-66 -24 c-3 -8 -12 -12 -21 -9
-12 5 -12 7 -1 14 20 13 28 11 22 -5z m-294 -5 c0 -5 -24 -12 -52 -15 -68 -8
-362 -16 -356 -11 2 2 18 5 36 7 18 1 32 6 32 10 0 5 46 6 103 3 56 -3 118 -1
137 4 47 12 100 13 100 2z m87 3 c-3 -3 -12 -4 -19 -1 -8 3 -5 6 6 6 11 1 17
-2 13 -5z m472 -30 c19 -42 13 -86 -23 -160 -35 -73 -77 -117 -102 -107 -17 6
-17 9 -4 34 6 10 16 19 23 19 20 0 64 50 81 92 25 60 16 132 -14 113 -7 -4
-16 -2 -21 6 -13 20 -11 27 9 31 26 6 38 -1 51 -28z m-704 -28 c-43 -26 -55
-25 -55 5 0 16 7 19 48 19 l47 0 -40 -24z m625 -26 c-11 -16 -20 -34 -20 -41
0 -8 5 -5 13 6 10 12 16 14 21 7 11 -18 24 -14 31 9 4 11 9 18 12 16 2 -3 -2
-24 -10 -47 -12 -35 -15 -39 -20 -21 -3 11 -11 21 -19 20 -10 0 -10 -2 0 -6
15 -6 16 -55 0 -71 -20 -20 -25 -14 -23 28 1 22 -2 43 -6 46 -12 7 -11 47 1
79 9 23 13 25 25 15 13 -11 12 -16 -5 -40z m-798 17 c6 -30 -18 -87 -38 -87
-8 0 -12 5 -9 10 3 6 1 10 -5 10 -6 0 -8 10 -4 25 4 18 1 27 -10 31 -32 12
-18 34 23 34 32 0 39 -4 43 -23z m851 7 c3 -4 -1 -17 -10 -31 -20 -30 -41 -16
-24 16 12 21 23 26 34 15z m-933 -33 c14 -26 13 -38 -2 -23 -23 23 -30 12 -26
-41 3 -34 13 -66 27 -85 29 -42 45 -41 36 1 -9 40 9 25 19 -16 4 -19 3 -26 -4
-22 -5 3 -10 2 -10 -4 0 -10 38 -26 46 -18 3 2 -2 17 -10 33 -8 16 -17 37 -20
47 -8 25 -36 21 -36 -5 -1 -22 -1 -23 -15 -4 -17 22 -20 50 -5 41 6 -3 14 4
19 16 l8 23 13 -24 c7 -14 18 -28 23 -32 12 -8 38 -88 32 -98 -3 -4 4 -15 15
-25 25 -22 25 -35 2 -35 -24 0 -128 107 -146 151 -17 41 -23 109 -12 127 11
18 34 14 46 -7z m-570 -1 c-8 -5 -24 -10 -35 -10 -17 0 -17 2 -5 10 8 5 24 10
35 10 17 0 17 -2 5 -10z m-95 -20 c-11 -5 -29 -9 -40 -9 -20 0 -20 0 0 9 11 5
29 9 40 9 20 0 20 0 0 -9z m182 -27 c48 -4 147 -7 219 -7 130 2 132 2 143 -22
6 -13 14 -24 19 -24 4 0 16 -16 26 -35 11 -19 23 -35 28 -35 10 0 10 3 -2 34
-14 38 -4 32 15 -8 20 -41 127 -146 149 -146 9 0 16 -7 16 -15 0 -31 -30 -12
-160 100 -119 103 -135 113 -157 99 -10 -6 -29 -32 -42 -59 l-25 -47 40 -159
c22 -87 40 -159 40 -159 -1 0 -28 11 -61 25 -85 35 -161 34 -226 -2 l-49 -28
-41 48 c-40 46 -42 47 -100 47 -32 0 -59 3 -59 6 0 4 16 24 36 46 45 50 43 79
-6 92 -19 5 -37 11 -39 12 -2 2 13 35 33 73 36 70 44 105 26 116 -6 3 -28 7
-50 7 -40 0 -46 4 -32 23 12 17 125 43 149 34 12 -4 61 -12 110 -16z m490 9
c7 -4 10 -17 7 -29 -8 -29 -34 -18 -34 13 0 25 7 29 27 16z m-907 -9 c0 -20
-13 -53 -20 -53 -14 0 -21 32 -9 46 12 15 29 19 29 7z m1640 -203 c0 -5 -5
-10 -11 -10 -5 0 -7 5 -4 10 3 6 8 10 11 10 2 0 4 -4 4 -10z m64 -15 c-4 -8
-11 -15 -16 -15 -6 0 -5 6 2 15 7 8 14 15 16 15 2 0 1 -7 -2 -15z m-19 -75 c3
-5 1 -10 -4 -10 -6 0 -11 5 -11 10 0 6 2 10 4 10 3 0 8 -4 11 -10z"/>
<path d="M2070 1320 c-8 -5 -10 -10 -5 -10 6 0 17 5 25 10 8 5 11 10 5 10 -5
0 -17 -5 -25 -10z"/>
<path d="M2159 1313 c19 -4 21 -7 10 -15 -11 -8 -10 -9 4 -4 10 3 28 7 40 7
17 1 15 3 -8 9 -16 4 -39 8 -50 7 -14 0 -13 -1 4 -4z"/>
<path d="M2065 1290 c-8 -13 5 -13 25 0 13 8 13 10 -2 10 -9 0 -20 -4 -23 -10z"/>
<path d="M1715 1263 c-11 -3 -24 -9 -29 -14 -5 -4 8 -3 30 2 58 16 57 26 -1
12z"/>
<path d="M1745 1239 c-22 -11 -32 -17 -22 -14 11 3 30 8 43 11 13 3 24 10 24
15 0 11 4 12 -45 -12z"/>
<path d="M1928 1243 c-10 -2 -18 -8 -18 -13 0 -5 14 -4 30 1 45 16 36 25 -12
12z"/>
<path d="M1625 1220 c-7 -12 2 -12 30 0 19 8 19 9 -2 9 -12 1 -25 -3 -28 -9z"/>
<path d="M1763 1223 c-13 -2 -23 -8 -23 -13 0 -8 13 -5 70 13 18 7 -15 6 -47
0z"/>
<path d="M1940 1203 c-8 -2 -21 -7 -29 -9 -8 -2 -12 -7 -9 -9 3 -3 22 1 44 9
35 13 30 21 -6 9z"/>
<path d="M1638 1193 c6 -2 18 -2 25 0 6 3 1 5 -13 5 -14 0 -19 -2 -12 -5z"/>
<path d="M1765 1185 l-30 -14 30 6 c17 3 39 10 50 14 20 8 20 8 0 8 -11 0 -33
-6 -50 -14z"/>
<path d="M1533 1150 c1 -22 5 -24 27 -10 12 8 12 10 -5 11 -20 0 -20 0 0 9 19
8 19 9 -2 9 -16 1 -21 -4 -20 -19z"/>
<path d="M1653 1163 c9 -2 25 -2 35 0 9 3 1 5 -18 5 -19 0 -27 -2 -17 -5z"/>
<path d="M1770 1160 c-13 -9 -13 -10 0 -9 8 1 26 5 40 9 l25 8 -25 1 c-14 0
-32 -4 -40 -9z"/>
<path d="M1208 1153 c6 -2 18 -2 25 0 6 3 1 5 -13 5 -14 0 -19 -2 -12 -5z"/>
<path d="M1338 1153 c6 -2 18 -2 25 0 6 3 1 5 -13 5 -14 0 -19 -2 -12 -5z"/>
<path d="M1675 1140 l-30 -8 27 -1 c15 0 30 4 33 9 3 6 5 9 3 9 -2 -1 -16 -5
-33 -9z"/>
<path d="M1800 1140 c-11 -8 -7 -9 15 -4 37 8 45 14 19 14 -10 0 -26 -5 -34
-10z"/>
<path d="M1145 1120 c-20 -9 -20 -9 0 -9 11 0 29 4 40 9 20 9 20 9 0 9 -11 0
-29 -4 -40 -9z"/>
<path d="M1765 1110 c-27 -7 -28 -8 -5 -8 14 0 34 3 45 8 25 11 2 11 -40 0z"/>
<path d="M1048 1103 c6 -2 18 -2 25 0 6 3 1 5 -13 5 -14 0 -19 -2 -12 -5z"/>
<path d="M1620 1101 c0 -4 11 -6 25 -3 14 2 25 6 25 8 0 2 -11 4 -25 4 -14 0
-25 -4 -25 -9z"/>
<path d="M1115 1090 c-7 -12 2 -12 30 0 19 8 19 9 -2 9 -12 1 -25 -3 -28 -9z"/>
<path d="M1303 1083 c9 -2 23 -2 30 0 6 3 -1 5 -18 5 -16 0 -22 -2 -12 -5z"/>
<path d="M1090 1060 c0 -5 7 -7 15 -4 8 4 15 8 15 10 0 2 -7 4 -15 4 -8 0 -15
-4 -15 -10z"/>
<path d="M1265 1060 c-8 -13 15 -13 35 0 12 8 11 10 -7 10 -12 0 -25 -4 -28
-10z"/>
<path d="M905 970 c-13 -6 -15 -9 -5 -9 8 0 22 4 30 9 18 12 2 12 -25 0z"/>
<path d="M868 943 c6 -2 18 -2 25 0 6 3 1 5 -13 5 -14 0 -19 -2 -12 -5z"/>
<path d="M1796 1341 c-3 -4 6 -6 19 -3 14 2 25 6 25 8 0 8 -39 4 -44 -5z"/>
<path d="M1646 1332 c-3 -5 23 -6 57 -4 87 5 94 10 15 11 -37 1 -69 -3 -72 -7z"/>
<path d="M1868 1333 c7 -3 16 -2 19 1 4 3 -2 6 -13 5 -11 0 -14 -3 -6 -6z"/>
<path d="M1330 1292 c-25 -10 -72 -24 -105 -32 -33 -7 -64 -18 -70 -23 -7 -7
-6 -8 3 -3 18 10 15 -4 -5 -27 -18 -20 -18 -20 16 -2 27 13 31 19 20 27 -11 8
-11 9 3 5 15 -5 141 36 183 61 29 17 7 14 -45 -6z"/>
<path d="M2375 1260 c-3 -6 1 -7 9 -4 18 7 21 14 7 14 -6 0 -13 -4 -16 -10z"/>
<path d="M2419 1243 c-13 -16 -12 -17 4 -4 16 13 21 21 13 21 -2 0 -10 -8 -17
-17z"/>
<path d="M2278 1213 c7 -3 16 -2 19 1 4 3 -2 6 -13 5 -11 0 -14 -3 -6 -6z"/>
<path d="M2305 1205 c-16 -8 -23 -14 -14 -15 8 0 24 7 35 15 23 18 18 18 -21
0z"/>
<path d="M2345 1194 c-22 -10 -25 -13 -10 -13 28 1 61 14 49 21 -5 3 -22 -1
-39 -8z"/>
<path d="M1260 1662 c63 -49 95 -71 119 -82 36 -16 38 -4 2 14 -21 12 -29 21
-25 34 5 13 4 14 -4 3 -8 -12 -19 -8 -61 22 -59 43 -82 50 -31 9z"/>
<path d="M1457 1679 c7 -7 15 -10 18 -7 3 3 -2 9 -12 12 -14 6 -15 5 -6 -5z"/>
<path d="M1515 1680 c11 -17 -15 -40 -44 -40 -15 0 -43 9 -64 19 -20 10 -37
14 -37 9 0 -6 -8 -4 -17 3 -12 10 -14 10 -9 1 12 -20 64 -43 101 -44 25 -1 33
-4 25 -12 -5 -5 -10 -17 -9 -25 0 -11 2 -12 6 -3 3 7 18 27 34 45 30 32 38 57
18 57 -5 0 -7 -5 -4 -10z"/>
<path d="M993 1643 c9 -2 25 -2 35 0 9 3 1 5 -18 5 -19 0 -27 -2 -17 -5z"/>
<path d="M935 1630 c-11 -5 -39 -9 -63 -9 -24 -1 -41 -5 -38 -10 8 -12 85 -2
116 15 28 15 17 18 -15 4z"/>
<path d="M1425 1600 c3 -5 8 -10 11 -10 2 0 4 5 4 10 0 6 -5 10 -11 10 -5 0
-7 -4 -4 -10z"/>
<path d="M776 1554 c-21 -25 -55 -53 -75 -61 -20 -8 -49 -21 -66 -29 -16 -8
-50 -20 -75 -28 -42 -13 -43 -14 -15 -16 53 -4 109 0 145 11 39 12 130 70 130
82 0 5 5 5 12 1 7 -4 8 -3 4 5 -8 13 -25 5 -43 -20 -12 -16 -58 -35 -76 -30
-5 1 -6 -2 -3 -7 6 -10 -60 -32 -95 -31 -19 0 -15 3 16 15 22 9 47 20 55 25 8
5 25 13 37 19 25 11 48 33 81 78 34 48 13 38 -32 -14z"/>
<path d="M1720 1570 c6 -11 13 -20 16 -20 2 0 0 9 -6 20 -6 11 -13 20 -16 20
-2 0 0 -9 6 -20z"/>
<path d="M1670 1571 c0 -6 4 -13 10 -16 6 -3 7 1 4 9 -7 18 -14 21 -14 7z"/>
<path d="M1980 1559 c7 -11 14 -19 16 -16 7 7 -7 37 -17 37 -6 0 -5 -9 1 -21z"/>
<path d="M1946 1557 c3 -10 9 -15 12 -12 3 3 0 11 -7 18 -10 9 -11 8 -5 -6z"/>
<path d="M849 1543 c-13 -16 -12 -17 4 -4 9 7 17 15 17 17 0 8 -8 3 -21 -13z"/>
<path d="M2021 1544 c0 -11 3 -14 6 -6 3 7 2 16 -1 19 -3 4 -6 -2 -5 -13z"/>
<path d="M1126 1513 c-6 -14 -5 -15 5 -6 7 7 10 15 7 18 -3 3 -9 -2 -12 -12z"/>
<path d="M1157 1523 c-4 -3 -7 -11 -7 -17 0 -6 5 -5 12 2 6 6 9 14 7 17 -3 3
-9 2 -12 -2z"/>
<path d="M1920 1503 c0 -4 5 -15 10 -23 8 -13 10 -13 10 2 0 9 -4 20 -10 23
-5 3 -10 3 -10 -2z"/>
<path d="M1960 1501 c0 -6 4 -13 10 -16 6 -3 7 1 4 9 -7 18 -14 21 -14 7z"/>
<path d="M2010 1481 c0 -6 4 -13 10 -16 6 -3 7 1 4 9 -7 18 -14 21 -14 7z"/>
<path d="M764 1436 c-56 -26 -95 -71 -93 -108 1 -20 2 -19 10 7 12 43 44 74
103 101 28 12 47 23 41 23 -5 1 -33 -10 -61 -23z"/>
<path d="M1860 1445 c0 -8 4 -15 10 -15 5 0 7 7 4 15 -4 8 -8 15 -10 15 -2 0
-4 -7 -4 -15z"/>
<path d="M1911 1444 c0 -11 3 -14 6 -6 3 7 2 16 -1 19 -3 4 -6 -2 -5 -13z"/>
<path d="M1171 1434 c0 -11 3 -14 6 -6 3 7 2 16 -1 19 -3 4 -6 -2 -5 -13z"/>
<path d="M1091 1424 c0 -11 3 -14 6 -6 3 7 2 16 -1 19 -3 4 -6 -2 -5 -13z"/>
<path d="M1125 1430 c-3 -5 -1 -10 4 -10 6 0 11 5 11 10 0 6 -2 10 -4 10 -3 0
-8 -4 -11 -10z"/>
<path d="M1950 1431 c0 -6 4 -13 10 -16 6 -3 7 1 4 9 -7 18 -14 21 -14 7z"/>
<path d="M1996 1415 c4 -8 8 -15 10 -15 2 0 4 7 4 15 0 8 -4 15 -10 15 -5 0
-7 -7 -4 -15z"/>
<path d="M1216 1395 c-3 -8 -1 -15 4 -15 6 0 10 7 10 15 0 8 -2 15 -4 15 -2 0
-6 -7 -10 -15z"/>
<path d="M2040 1401 c0 -6 4 -13 10 -16 6 -3 7 1 4 9 -7 18 -14 21 -14 7z"/>
<path d="M607 1382 c-15 -17 -15 -20 -1 -38 15 -18 15 -18 5 3 -9 18 -7 24 11
37 12 9 18 16 12 16 -6 0 -18 -8 -27 -18z"/>
<path d="M1147 1343 c-10 -20 -16 -38 -13 -40 6 -6 38 56 34 67 -2 4 -11 -8
-21 -27z"/>
<path d="M1112 1330 c0 -14 2 -19 5 -12 2 6 2 18 0 25 -3 6 -5 1 -5 -13z"/>
<path d="M1062 1310 c0 -14 2 -19 5 -12 2 6 2 18 0 25 -3 6 -5 1 -5 -13z"/>
<path d="M359 1303 c-13 -15 -12 -15 9 -4 23 12 28 21 13 21 -5 0 -15 -7 -22
-17z"/>
<path d="M553 1295 c-23 -16 -87 -114 -80 -122 3 -2 19 20 37 49 17 29 42 61
53 70 27 22 19 24 -10 3z"/>
<path d="M340 1269 c0 -5 5 -7 10 -4 6 3 10 8 10 11 0 2 -4 4 -10 4 -5 0 -10
-5 -10 -11z"/>
<path d="M1944 972 c3 -5 0 -13 -6 -15 -9 -4 -10 -6 -1 -6 17 -1 25 16 12 25
-7 4 -9 3 -5 -4z"/>
<path d="M1605 891 c-3 -6 3 -9 14 -8 11 0 17 5 15 9 -7 11 -22 10 -29 -1z"/>
<path d="M1925 890 c-11 -5 -17 -9 -13 -9 3 -1 13 -3 21 -6 8 -4 14 0 14 10 0
8 -1 15 -1 14 -1 0 -10 -4 -21 -9z"/>
<path d="M1880 874 c0 -7 52 -25 57 -20 2 2 -10 8 -26 14 -17 6 -31 9 -31 6z"/>
<path d="M388 803 c7 -3 16 -2 19 1 4 3 -2 6 -13 5 -11 0 -14 -3 -6 -6z"/>
<path d="M960 801 c0 -5 11 -11 25 -13 20 -4 23 -3 14 8 -13 16 -39 19 -39 5z"/>
<path d="M311 764 c-33 -27 -87 -111 -78 -120 2 -3 17 17 32 43 16 26 42 60
59 75 40 35 28 37 -13 2z"/>
<path d="M1551 760 c-49 -18 -124 -61 -117 -67 1 -2 35 14 76 35 66 34 80 37
154 37 44 0 97 -3 116 -8 27 -6 32 -5 22 5 -7 7 -49 13 -105 15 -73 3 -103 -1
-146 -17z"/>
<path d="M1345 690 c-17 -18 -17 -20 -2 -14 13 5 16 2 11 -10 -8 -22 3 -20 15
2 16 30 -2 46 -24 22z"/>
<path d="M1577 694 c-36 -19 -26 -34 23 -34 43 0 112 28 104 42 -9 14 -97 8
-127 -8z m86 -11 c-7 -2 -19 -2 -25 0 -7 3 -2 5 12 5 14 0 19 -2 13 -5z m-46
-9 c-3 -3 -12 -4 -19 -1 -8 3 -5 6 6 6 11 1 17 -2 13 -5z"/>
<path d="M1375 649 c-4 -5 -4 -13 -1 -16 3 -4 6 0 7 8 0 8 4 6 9 -6 7 -16 9
-17 9 -3 1 21 -15 32 -24 17z"/>
<path d="M38 597 c-3 -19 -2 -25 4 -19 6 6 8 18 6 28 -3 14 -5 12 -10 -9z"/>
<path d="M196 554 c-9 -26 -14 -49 -12 -51 2 -2 11 17 20 43 9 26 14 49 12 51
-2 2 -11 -17 -20 -43z"/>
<path d="M1830 584 c-7 -8 -9 -14 -5 -14 5 0 0 -10 -11 -21 -19 -22 -19 -22 1
-11 11 6 28 19 37 30 13 17 14 21 3 26 -7 2 -19 -2 -25 -10z"/>
<path d="M362 545 c-17 -37 -14 -45 4 -12 9 16 14 31 11 33 -2 2 -9 -7 -15
-21z"/>
<path d="M1352 470 c-1 -144 -8 -204 -27 -233 -9 -15 -19 -27 -22 -27 -2 0 -3
22 -2 50 2 27 -1 53 -5 57 -5 5 -6 -27 -4 -70 3 -52 -1 -108 -12 -163 -9 -46
-13 -84 -9 -84 8 0 15 28 25 110 l7 55 22 -68 c12 -37 30 -76 40 -85 16 -16
17 -16 6 5 -17 33 -14 36 17 14 16 -11 41 -22 58 -26 22 -4 17 1 -21 21 -27
14 -55 26 -62 27 -18 1 -33 53 -27 90 3 18 12 49 20 71 16 42 19 255 4 317 -5
25 -8 7 -8 -61z m-7 -252 c-8 -24 -16 -52 -18 -63 -3 -12 -5 -7 -6 13 -1 29
22 92 34 92 2 0 -2 -19 -10 -42z"/>
<path d="M2272 541 c42 -3 80 -10 85 -14 4 -5 11 -41 14 -80 l6 -72 1 68 c3
93 -12 108 -110 105 l-73 -1 77 -6z"/>
<path d="M1993 533 c15 -2 37 -2 50 0 12 2 0 4 -28 4 -27 0 -38 -2 -22 -4z"/>
<path d="M2148 533 c6 -2 18 -2 25 0 6 3 1 5 -13 5 -14 0 -19 -2 -12 -5z"/>
<path d="M2530 520 c-6 -11 -8 -20 -6 -20 3 0 10 9 16 20 6 11 8 20 6 20 -3 0
-10 -9 -16 -20z"/>
<path d="M1426 442 c102 -95 216 -133 297 -98 42 18 120 76 113 83 -3 4 -14
-1 -24 -10 -10 -10 -23 -17 -28 -17 -5 0 -21 -8 -34 -17 -29 -21 -40 -24 -102
-30 -40 -4 -53 0 -102 31 -31 20 -59 36 -62 36 -3 0 -25 16 -48 35 -63 51 -69
42 -10 -13z"/>
<path d="M2506 475 c-3 -9 -5 -29 -5 -43 1 -20 3 -17 9 13 8 43 7 57 -4 30z"/>
<path d="M1608 473 c12 -2 30 -2 40 0 9 3 -1 5 -23 4 -22 0 -30 -2 -17 -4z"/>
<path d="M1610 450 c14 -4 34 -8 45 -8 16 0 15 2 -5 8 -14 4 -34 8 -45 8 -16
0 -15 -2 5 -8z"/>
<path d="M1580 431 c0 -5 16 -11 36 -13 32 -4 34 -3 18 9 -20 15 -54 17 -54 4z"/>
<path d="M147 411 c-4 -17 -3 -21 5 -13 5 5 8 16 6 23 -3 8 -7 3 -11 -10z"/>
<path d="M1854 353 c3 -64 9 -84 57 -176 l53 -105 -18 -27 c-14 -21 -20 -25
-27 -14 -6 10 -8 7 -6 -9 2 -29 11 -28 37 5 27 35 23 60 -32 166 -27 54 -46
108 -54 157 l-13 75 3 -72z"/>
<path d="M409 364 c23 -27 41 -54 41 -58 0 -4 9 -20 20 -36 28 -40 11 -46 -22
-8 -15 18 -30 29 -33 26 -4 -3 23 -35 58 -70 35 -34 72 -76 81 -93 13 -24 15
-25 10 -6 -11 41 -114 208 -155 253 l-41 43 41 -51z"/>
<path d="M1272 400 c0 -8 4 -26 8 -40 6 -20 8 -21 8 -5 0 11 -3 29 -8 40 -5
12 -8 14 -8 5z"/>
<path d="M1610 390 c8 -5 22 -9 30 -9 10 0 8 3 -5 9 -27 12 -43 12 -25 0z"/>
<path d="M309 363 c-33 -40 -40 -56 -10 -24 17 18 31 35 31 37 0 8 -7 3 -21
-13z"/>
<path d="M1810 358 c-12 -22 -12 -22 6 -6 10 10 15 20 12 24 -4 3 -12 -5 -18
-18z"/>
<path d="M126 355 c-9 -26 -7 -32 5 -12 6 10 9 21 6 23 -2 3 -7 -2 -11 -11z"/>
<path d="M1911 319 c0 -24 4 -53 9 -64 5 -12 6 4 3 40 -7 72 -13 85 -12 24z"/>
<path d="M1132 325 c0 -16 4 -41 8 -55 8 -24 8 -24 8 5 0 17 -4 41 -8 55 -8
24 -8 24 -8 -5z"/>
<path d="M2361 334 c0 -11 3 -14 6 -6 3 7 2 16 -1 19 -3 4 -6 -2 -5 -13z"/>
<path d="M1478 314 c6 -12 9 -24 6 -26 -2 -3 2 -11 10 -17 24 -20 16 26 -8 47
-18 16 -18 16 -8 -4z"/>
<path d="M1807 323 c-4 -3 -7 -15 -7 -26 0 -25 13 -14 17 13 3 21 1 24 -10 13z"/>
<path d="M321 307 c-1 -23 47 -169 60 -182 12 -12 2 39 -14 70 -6 11 -18 45
-28 75 -9 30 -18 47 -18 37z"/>
<path d="M289 270 c-7 -49 -52 -170 -79 -210 -22 -33 -33 -63 -20 -55 17 10
77 136 95 198 9 31 15 69 13 84 -3 22 -5 18 -9 -17z"/>
<path d="M660 304 c0 -6 7 -19 16 -30 14 -18 14 -18 3 6 -14 31 -19 36 -19 24z"/>
<path d="M241 274 c-16 -37 -9 -39 11 -3 9 16 14 29 9 29 -4 0 -13 -12 -20
-26z"/>
<path d="M2466 285 c-9 -26 -7 -32 5 -12 6 10 9 21 6 23 -2 3 -7 -2 -11 -11z"/>
<path d="M1955 260 c10 -11 20 -20 23 -20 3 0 -3 9 -13 20 -10 11 -20 20 -23
20 -3 0 3 -9 13 -20z"/>
<path d="M377 248 c-3 -12 -2 -29 3 -37 7 -12 9 -6 10 22 0 42 -5 48 -13 15z"/>
<path d="M1531 183 c10 -38 18 -86 19 -108 1 -22 5 -49 10 -60 8 -18 9 -18 10
5 l1 25 11 -22 c19 -39 29 -25 12 15 -9 20 -28 76 -42 125 -30 102 -46 118
-21 20z"/>
<path d="M1781 163 c-7 -49 -14 -105 -17 -125 -4 -29 -2 -38 9 -38 11 0 15 26
20 122 4 67 5 123 4 125 -2 2 -9 -36 -16 -84z"/>
<path d="M2326 235 c-9 -26 -7 -32 5 -12 6 10 9 21 6 23 -2 3 -7 -2 -11 -11z"/>
<path d="M2450 247 c0 -3 -9 -30 -21 -59 -11 -29 -16 -48 -11 -43 14 15 44 97
37 103 -3 3 -5 2 -5 -1z"/>
<path d="M70 219 c-7 -11 -10 -23 -7 -25 2 -2 9 7 15 21 14 30 7 33 -8 4z"/>
<path d="M1156 195 c3 -27 10 -57 15 -65 12 -21 10 -3 -6 60 l-15 55 6 -50z"/>
<path d="M1930 218 c0 -9 5 -20 10 -23 13 -8 13 5 0 25 -8 13 -10 13 -10 -2z"/>
<path d="M2040 173 c27 -33 40 -58 37 -70 -3 -10 -8 -29 -11 -43 -4 -18 -16
-30 -41 -39 -20 -7 -35 -15 -32 -17 2 -3 16 0 31 5 19 8 26 7 26 -2 1 -19 19
18 34 67 l14 45 -50 53 -50 53 42 -52z"/>
<path d="M35 150 c-9 -16 -13 -30 -11 -30 3 0 12 14 21 30 9 17 13 30 11 30
-3 0 -12 -13 -21 -30z"/>
<path d="M2296 165 c-9 -26 -7 -32 5 -12 6 10 9 21 6 23 -2 3 -7 -2 -11 -11z"/>
<path d="M1184 97 c3 -10 6 -37 6 -58 0 -24 4 -38 10 -34 15 9 11 56 -6 85 -8
14 -13 17 -10 7z"/>
<path d="M2381 87 c-13 -21 -12 -21 5 -5 10 10 16 20 13 22 -3 3 -11 -5 -18
-17z"/>
<path d="M1846 91 c-13 -20 -25 -62 -17 -57 5 3 14 19 19 36 10 29 9 40 -2 21z"/>
<path d="M2106 90 c5 -8 20 -32 33 -52 12 -21 25 -38 27 -38 9 0 -35 77 -52
91 -15 12 -16 12 -8 -1z"/>
<path d="M1866 65 c-9 -26 -7 -32 5 -12 6 10 9 21 6 23 -2 3 -7 -2 -11 -11z"/>
<path d="M1890 51 c-6 -12 -7 -21 -1 -21 10 0 24 30 17 37 -2 3 -9 -5 -16 -16z"/>
<path d="M2361 44 c0 -11 3 -14 6 -6 3 7 2 16 -1 19 -3 4 -6 -2 -5 -13z"/>
</g>
</svg>
