<?xml version="1.0" standalone="no"?>
<!DOCTYPE svg PUBLIC "-//W3C//DTD SVG 20010904//EN"
 "http://www.w3.org/TR/2001/REC-SVG-20010904/DTD/svg10.dtd">
<svg version="1.0" xmlns="http://www.w3.org/2000/svg"
 width="300.000000pt" height="169.000000pt" viewBox="0 0 300.000000 169.000000"
 preserveAspectRatio="xMidYMid meet">
<metadata>
Created by potrace 1.10, written by Peter Selinger 2001-2011
</metadata>
<g transform="translate(0.000000,169.000000) scale(0.100000,-0.100000)"
fill="#000000" stroke="none">
<path d="M545 1609 c-153 -103 -158 -109 -195 -188 -42 -90 -145 -274 -192
-343 -37 -55 -41 -58 -81 -58 -51 0 -67 -20 -73 -89 l-4 -46 16 40 c9 22 17
49 17 60 2 18 9 20 67 19 80 -2 120 -7 120 -16 0 -4 9 -10 20 -13 31 -10 24
-22 -19 -29 -89 -14 -133 -92 -181 -316 -17 -79 -29 -151 -27 -159 4 -12 5
-11 6 3 2 40 61 286 81 339 26 68 69 114 115 123 48 9 54 2 42 -56 -10 -50
-31 -67 -43 -35 -14 36 -32 3 -69 -130 -31 -110 -87 -280 -99 -300 -23 -38
-46 -105 -36 -105 6 0 10 4 10 9 0 5 15 42 34 83 18 40 57 152 86 248 29 96
55 179 57 183 3 5 13 1 22 -7 10 -9 38 -19 62 -22 37 -5 54 -1 97 21 55 28
105 28 116 -1 3 -8 -12 -48 -34 -90 -22 -41 -40 -77 -40 -79 0 -2 18 -9 40
-15 51 -14 52 -32 5 -93 -20 -26 -31 -48 -25 -52 6 -3 31 -3 56 1 45 6 46 6
94 -45 l48 -51 47 26 c72 38 117 40 210 10 43 -14 81 -24 83 -22 2 2 -11 59
-28 126 -41 156 -43 205 -10 253 14 20 31 37 38 37 7 0 56 -35 109 -77 151
-123 187 -148 191 -129 2 9 -25 42 -63 77 -36 34 -64 67 -62 73 3 6 0 19 -5
29 -8 16 -12 16 -26 5 -15 -12 -16 -11 -4 4 9 12 11 31 7 62 -8 49 -2 55 26
30 17 -16 18 -15 9 17 -6 19 -10 35 -10 36 0 2 -11 3 -24 3 -32 0 -37 -17 -30
-104 3 -47 1 -77 -6 -81 -6 -4 -9 -3 -8 2 4 14 -25 82 -33 77 -5 -2 -13 5 -19
17 -11 19 -19 20 -103 19 -155 -3 -238 0 -234 8 3 4 -27 8 -66 10 -40 1 -85 3
-102 4 -16 1 -45 -2 -62 -7 -22 -5 -33 -4 -33 3 0 11 14 17 60 26 14 3 51 12
84 20 51 13 60 13 73 0 17 -17 29 -18 38 -4 4 6 16 8 27 4 15 -4 18 -3 13 6
-6 10 -1 12 19 8 14 -3 28 -3 30 1 6 9 87 5 111 -5 19 -8 19 -8 -5 -15 l-25
-7 28 -1 c15 -1 27 3 27 7 0 5 10 14 23 20 19 10 16 11 -18 6 -30 -4 -36 -3
-25 5 19 13 100 14 100 2 0 -6 -4 -12 -10 -16 -5 -3 -7 -12 -4 -20 4 -8 10
-12 15 -9 5 3 13 -5 18 -18 6 -13 10 -18 10 -11 2 21 -11 43 -24 43 -10 0 -11
5 -2 26 11 22 17 25 54 22 25 -2 38 1 33 6 -5 5 -56 4 -127 -2 -65 -7 -143
-13 -173 -14 -30 -2 -57 -6 -60 -9 -10 -12 -73 -22 -66 -10 10 16 -17 13 -121
-13 -51 -12 -93 -19 -93 -15 0 12 30 39 43 39 7 0 25 7 41 15 15 8 33 12 39 8
6 -4 7 -1 2 7 -6 9 -2 10 15 5 16 -5 20 -4 15 5 -5 9 -1 10 15 5 16 -5 20 -4
15 5 -5 9 -1 10 15 5 16 -5 20 -4 15 5 -5 9 -1 10 15 5 17 -5 20 -4 15 5 -6
10 -1 12 19 8 14 -3 26 -1 26 4 0 6 11 7 26 4 16 -4 23 -3 19 4 -3 6 4 10 17
10 31 -1 220 45 214 51 -3 3 11 6 31 6 26 1 32 -2 22 -9 -20 -13 27 -1 66 18
48 23 394 100 575 129 91 14 207 32 258 40 109 18 122 18 102 5 -13 -9 -13
-10 0 -10 8 0 21 4 29 9 11 7 5 11 -22 16 -20 4 -43 5 -51 2 -8 -3 -16 -2 -18
3 -2 5 -39 17 -83 25 -44 9 -90 18 -102 21 -13 2 -23 0 -23 -5 0 -4 27 -11 59
-15 33 -4 79 -12 103 -19 l43 -13 -101 -16 c-55 -10 -111 -14 -122 -11 -13 3
-22 1 -22 -6 0 -7 -10 -10 -25 -7 -13 3 -28 0 -31 -6 -4 -5 -19 -7 -35 -4 -17
3 -29 1 -29 -5 0 -6 -3 -8 -7 -6 -5 3 -46 -3 -93 -14 -47 -10 -121 -25 -165
-33 -44 -8 -88 -18 -98 -21 -13 -6 -16 -3 -11 9 3 9 1 16 -6 16 -6 0 -9 -4 -5
-10 10 -15 -36 -37 -115 -54 -41 -9 -83 -19 -92 -22 -35 -10 -18 22 30 58 122
92 280 158 476 198 163 33 307 24 469 -30 81 -28 95 -29 146 -21 31 6 99 11
151 12 52 1 124 6 160 10 36 5 90 9 120 10 30 0 86 9 125 19 74 19 107 22 99
8 -3 -5 -9 -6 -14 -3 -5 3 -21 0 -36 -6 -36 -13 -149 -37 -206 -43 -24 -3 -70
-10 -103 -15 -33 -6 -90 -8 -126 -5 -46 4 -69 2 -74 -6 -6 -9 1 -10 24 -5 52
11 34 -14 -43 -63 -38 -24 -90 -48 -115 -53 -75 -17 -145 -41 -161 -55 -26
-22 -104 -51 -210 -78 -116 -29 -136 -31 -143 -13 -4 8 -8 9 -14 1 -4 -6 -33
-12 -63 -13 -257 -6 -317 -9 -334 -16 -10 -5 -58 -3 -105 3 -55 7 -102 8 -131
2 -89 -18 -90 -6 -2 41 31 16 48 27 37 23 -11 -4 -33 -7 -50 -6 -25 0 -27 -1
-10 -8 19 -8 19 -9 -2 -9 -13 -1 -23 -5 -23 -9 0 -5 -17 -21 -37 -36 l-38 -28
35 7 c19 3 80 9 136 12 89 4 103 3 119 -13 13 -13 20 -15 23 -6 2 6 18 12 35
11 31 -1 31 -1 7 -10 l-25 -8 25 1 c58 1 59 0 55 -39 l-5 -38 11 38 c14 47 49
52 66 10 l12 -28 -6 28 c-4 20 -1 27 10 27 10 0 16 -13 19 -40 3 -38 2 -40
-29 -46 -18 -3 -44 -3 -59 0 -25 7 -25 6 -24 -46 2 -29 -3 -64 -9 -78 -10 -24
-11 -23 -5 8 4 21 2 32 -6 32 -7 0 -10 -14 -8 -37 2 -27 -1 -38 -11 -38 -17 0
-24 65 -8 83 7 9 6 17 -4 27 -13 13 -17 12 -32 -5 -15 -18 -15 -20 -1 -20 13
0 15 -8 12 -35 -4 -39 7 -54 64 -85 18 -10 32 -25 32 -34 -1 -9 3 -16 8 -16 6
0 25 -16 43 -35 28 -29 34 -44 39 -102 13 -129 15 -253 6 -253 -6 0 -10 -10
-10 -22 0 -13 -4 -48 -8 -78 -7 -43 -10 -51 -17 -36 -6 13 -3 36 8 65 13 38
13 42 1 26 -21 -28 -55 -143 -56 -187 0 -36 -2 -38 -33 -38 -31 0 -33 2 -38
43 -3 23 -14 74 -25 112 -11 39 -23 93 -27 120 -23 172 -132 475 -170 475 -20
0 -47 -56 -42 -88 4 -25 4 -25 6 4 0 18 9 42 20 55 l19 23 29 -59 c61 -123
107 -277 133 -437 5 -37 19 -95 30 -130 11 -35 20 -75 20 -90 l0 -28 -274 0
-274 0 -11 45 c-6 25 -43 111 -82 190 -57 118 -79 152 -114 182 -34 28 -42 40
-33 50 6 7 8 13 5 13 -2 0 -29 -30 -60 -68 -44 -54 -56 -76 -61 -117 -11 -77
-34 -152 -72 -227 l-34 -67 -97 -4 -98 -3 100 -2 100 -2 23 35 c32 50 78 172
87 230 l7 50 14 -54 c16 -58 50 -141 58 -141 3 0 6 9 6 21 0 11 -4 18 -9 15
-10 -7 -46 100 -56 164 -6 39 -4 48 18 68 l24 22 26 -26 c28 -28 137 -195 137
-210 0 -5 -27 18 -59 50 -73 72 -91 71 -90 -6 0 -46 2 -50 10 -28 6 14 8 35 6
48 -2 12 0 25 4 28 12 7 126 -103 145 -138 8 -16 19 -28 24 -28 25 0 -129 262
-175 299 -20 15 -22 21 -12 34 11 13 16 13 49 -9 31 -20 50 -50 117 -186 44
-90 83 -178 86 -195 l7 -33 -219 -3 c-120 -1 41 -3 357 -3 316 0 560 1 541 3
l-34 4 7 46 c3 25 6 54 6 65 0 29 17 13 24 -23 7 -38 43 -99 58 -99 6 0 3 9
-7 20 -23 25 -12 26 23 2 20 -14 49 -19 107 -21 44 -1 75 2 69 6 -6 4 -15 33
-18 63 l-7 55 26 -60 c13 -33 25 -61 25 -62 0 -2 38 -3 85 -3 l85 0 1 33 2 32
6 -35 c5 -25 9 2 16 93 6 70 7 127 4 127 -8 0 -25 -91 -34 -177 l-7 -63 -73 0
-73 0 -20 47 c-11 27 -30 81 -42 121 -12 39 -26 72 -32 72 -6 0 -8 -6 -5 -14
14 -35 25 -96 31 -158 l7 -68 -40 0 c-42 0 -149 41 -163 63 -10 15 -1 95 19
166 11 37 14 83 11 147 l-4 92 49 -44 c27 -24 82 -60 123 -80 89 -45 138 -43
215 5 55 34 64 37 53 20 -4 -7 -9 -32 -11 -58 -3 -35 -1 -43 8 -34 7 7 13 35
14 63 3 72 11 71 19 -2 4 -46 20 -91 57 -169 43 -89 49 -110 40 -127 -16 -30
-14 -39 4 -16 22 29 19 39 -36 156 -37 79 -52 124 -56 168 -3 33 -7 60 -9 60
-1 0 -33 -19 -70 -42 -59 -37 -75 -43 -124 -43 -48 0 -66 6 -126 42 -99 59
-151 110 -159 156 -4 25 -2 37 6 37 6 0 8 7 5 16 -3 9 -2 12 5 9 6 -4 8 -13 5
-20 -5 -14 30 -52 39 -43 3 3 -1 11 -10 18 -27 23 -16 29 24 12 34 -14 36 -18
22 -29 -22 -16 -2 -35 38 -37 17 -1 31 -5 31 -10 0 -5 3 -6 8 -2 4 4 7 13 7
19 0 7 11 13 25 14 23 2 23 2 5 -6 -11 -5 -17 -10 -13 -10 15 -2 115 28 153
45 63 28 63 28 5 -11 -30 -20 -47 -34 -38 -31 34 10 129 76 123 85 -3 5 5 18
17 28 57 47 139 153 99 128 -5 -3 -13 0 -17 6 -4 7 -3 9 3 6 16 -10 43 16 49
48 6 28 8 53 14 160 2 35 3 37 10 15 6 -17 8 -19 9 -7 1 26 -28 67 -49 67 -9
0 -31 -5 -49 -11 -27 -10 -31 -16 -31 -47 l0 -37 -20 30 c-28 43 -117 61 -218
43 l-73 -12 7 -46 c4 -25 10 -52 15 -61 6 -12 4 -16 -8 -15 -9 0 -18 -4 -20
-11 -3 -7 4 -10 19 -6 22 4 22 4 4 -11 -26 -21 -26 -21 -64 12 -31 26 -32 30
-26 75 6 44 10 49 37 54 27 5 28 7 12 13 -11 4 -24 5 -30 1 -17 -11 -278 3
-282 15 -2 7 29 9 103 6 65 -3 126 0 158 7 33 8 65 10 91 4 22 -5 60 -6 85 -2
106 16 279 72 320 104 21 16 66 32 130 45 34 7 90 32 150 68 97 58 122 65 310
86 57 6 191 36 211 46 28 16 34 12 14 -10 -10 -11 -27 -22 -39 -26 -11 -4 -32
-14 -46 -24 -14 -10 -36 -21 -49 -25 -13 -4 -45 -22 -70 -40 -25 -19 -71 -43
-101 -55 -30 -12 -68 -29 -85 -39 -16 -9 -51 -23 -77 -30 -27 -8 -48 -18 -48
-22 0 -5 -9 -9 -19 -9 -30 0 -31 -10 -11 -70 10 -30 17 -56 16 -58 -2 -1 -16
2 -31 8 -27 10 -28 10 -20 -22 4 -18 8 -42 9 -52 2 -11 8 -22 14 -24 15 -5 15
-3 -3 48 -16 46 -19 44 33 23 16 -7 15 15 -3 67 -20 56 -19 70 5 70 11 0 20 4
20 9 0 5 14 13 32 16 17 4 62 23 99 41 37 19 71 34 76 34 5 0 36 16 69 36 32
20 97 56 144 81 153 81 172 126 43 104 -110 -20 -217 -30 -398 -41 -93 -5
-187 -13 -207 -18 -37 -10 -38 -9 -38 17 0 16 -7 50 -15 77 -8 27 -15 58 -15
69 0 26 -66 165 -78 165 -6 0 5 -28 24 -63 31 -60 64 -181 64 -241 0 -23 -3
-27 -17 -21 -62 27 -184 55 -267 61 -53 4 -99 11 -103 16 -3 6 -8 6 -12 1 -3
-5 -52 -16 -108 -26 -57 -9 -140 -29 -185 -44 -46 -15 -87 -26 -92 -24 -5 1
-13 -4 -18 -11 -6 -10 -10 -10 -18 2 -8 13 -11 11 -16 -8 -5 -16 -11 -21 -25
-17 -13 4 -19 1 -19 -8 0 -12 -19 -27 -35 -27 -14 0 -11 38 5 70 20 39 40 60
40 41 0 -6 5 -11 11 -11 7 0 9 10 6 25 -4 22 1 28 31 40 42 18 40 19 45 -2 4
-17 5 -17 6 0 0 9 9 17 19 17 9 1 28 7 42 15 30 17 22 19 -16 5 -41 -16 -84
-19 -84 -6 0 6 -7 3 -14 -6 -7 -10 -18 -18 -25 -18 -11 0 -15 -13 -12 -39 2
-7 -2 -10 -7 -7 -14 8 -52 -23 -52 -43 0 -9 -7 -26 -15 -37 -8 -10 -15 -31
-15 -46 0 -26 -13 -38 -23 -20 -2 4 -3 2 -1 -4 1 -6 -7 -16 -18 -23 -18 -11
-20 -11 -15 3 4 9 1 16 -4 16 -6 0 -9 -8 -7 -18 6 -22 -27 -48 -38 -31 -18 30
-3 268 22 332 11 29 -29 20 -78 -18 -42 -33 -75 -81 -63 -93 3 -3 5 1 5 9 1
10 5 8 16 -6 9 -13 27 -20 47 -20 32 0 32 -1 35 -54 l3 -54 -42 6 c-23 3 -53
1 -67 -4 -26 -10 -45 -3 -26 9 15 10 35 72 23 72 -5 0 -9 -6 -9 -14 0 -8 -9
-31 -21 -50 -23 -40 -64 -53 -121 -40 -18 4 -40 7 -47 5 -13 -2 -13 0 0 16 13
16 13 17 -3 4 -10 -7 -24 -11 -31 -8 -7 3 -23 0 -35 -7 -42 -22 -144 -179
-167 -256 -4 -14 -15 -43 -25 -65 -10 -22 -26 -57 -35 -78 -17 -39 -65 -77
-97 -77 -22 0 -22 3 -3 41 9 16 47 113 85 214 38 101 79 208 91 236 l22 51
-24 19 -24 19 24 0 c28 0 88 -37 96 -59 4 -9 -7 -24 -25 -39 -27 -21 -80 -108
-80 -129 0 -4 18 20 40 54 22 34 51 70 64 80 23 17 23 19 8 45 -8 15 -25 29
-36 32 -32 8 -11 19 23 11 18 -4 28 -11 25 -19 -3 -7 2 -19 11 -26 14 -12 16
-11 10 11 -5 20 -1 28 17 37 17 8 19 11 6 11 -9 1 -19 -3 -22 -8 -9 -13 -46
-1 -46 15 0 8 -8 14 -17 15 -10 0 0 7 22 15 22 8 49 18 60 24 11 5 37 16 57
24 20 8 64 42 97 75 50 52 64 61 94 61 19 0 52 6 73 13 31 11 57 11 126 3 98
-12 144 -36 55 -28 -49 4 -54 2 -65 -22 -17 -38 -14 -47 4 -13 17 31 53 36
106 13 18 -8 48 -20 67 -27 19 -7 29 -15 22 -17 -23 -8 27 -33 78 -39 34 -4
51 -11 54 -22 3 -11 5 -10 6 5 0 12 8 27 16 34 8 7 15 18 15 24 0 20 -48 59
-64 53 -10 -4 -28 5 -45 21 -42 40 -71 63 -71 56 0 -4 -7 -1 -15 6 -8 6 -23 9
-36 5 -17 -6 -19 -9 -8 -16 8 -5 22 -9 31 -9 21 0 108 -58 108 -72 0 -6 10 -8
26 -4 16 4 23 3 19 -3 -3 -6 0 -8 8 -5 8 3 18 0 23 -7 4 -7 3 -10 -2 -6 -6 3
-16 2 -24 -3 -9 -5 -19 -5 -27 2 -9 7 -13 7 -13 -1 0 -18 29 -25 56 -12 23 10
24 9 14 -8 -21 -41 -70 -38 -130 8 -49 37 -80 52 -93 44 -5 -3 -7 -2 -4 4 9
15 -37 55 -55 48 -8 -3 -43 -1 -77 4 -48 8 -70 7 -102 -5 -23 -7 -59 -14 -81
-14 -35 0 -46 -7 -106 -69 -44 -44 -78 -71 -99 -75 -17 -4 -48 -16 -69 -27
-21 -10 -46 -19 -54 -19 -28 0 -32 -13 -8 -27 22 -12 22 -12 3 -14 -55 -4
-125 16 -125 37 0 8 -4 14 -10 14 -18 0 -11 -29 10 -40 11 -6 31 -22 46 -37
l26 -26 -30 -66 c-17 -36 -47 -113 -67 -171 -38 -105 -109 -277 -119 -288 -14
-13 -17 9 -7 45 6 21 11 48 11 61 0 35 -51 80 -98 88 l-40 6 38 57 c49 74 152
261 186 336 26 58 69 115 87 115 4 0 38 21 75 47 188 133 199 154 17 32z m476
-129 c-11 -43 -20 -60 -32 -60 -10 0 -26 -3 -36 -6 -14 -4 -15 -4 -4 4 11 8 9
11 -8 17 -11 3 -21 10 -21 15 0 10 97 90 109 90 4 0 1 -27 -8 -60z m126 -202
c-3 -8 -6 -5 -6 6 -1 11 2 17 5 13 3 -3 4 -12 1 -19z m-147 -16 c0 -15 4 -41
9 -58 17 -59 20 -57 -239 -118 -80 -19 -182 -50 -227 -69 -46 -19 -83 -33 -83
-30 0 3 17 42 39 88 41 88 111 189 138 200 9 3 48 0 87 -6 60 -10 79 -9 121 4
28 8 74 15 103 16 50 1 52 0 52 -27z m933 -244 c4 -10 8 -9 16 2 8 12 11 8 11
-17 0 -25 -4 -31 -15 -27 -10 4 -15 0 -15 -11 0 -11 5 -15 15 -11 17 6 19 -2
5 -24 -6 -9 -5 -19 2 -28 6 -7 7 -12 2 -11 -5 1 -20 1 -34 0 -25 -2 -25 -2 5
-16 36 -16 31 -18 -13 -6 -17 5 -32 6 -32 1 0 -5 10 -10 23 -12 12 -2 22 -7
22 -13 0 -5 4 -16 8 -22 13 -20 -5 -15 -31 10 -14 12 -22 17 -18 10 3 -6 2
-14 -2 -17 -12 -7 -3 -56 10 -56 5 0 7 -4 3 -9 -3 -5 -1 -12 5 -16 5 -3 10
-11 10 -16 0 -6 -5 -7 -12 -3 -7 5 -9 2 -5 -9 4 -11 2 -14 -9 -10 -7 3 -14 9
-14 14 0 5 -5 9 -11 9 -7 0 -5 -10 5 -25 11 -17 13 -24 4 -23 -7 2 -17 -7 -23
-19 -5 -13 -14 -23 -20 -24 -5 0 -20 -13 -33 -30 -20 -25 -21 -28 -5 -23 14 5
15 4 3 -4 -8 -6 -17 -9 -22 -6 -4 3 -31 -7 -60 -22 -34 -17 -68 -26 -99 -26
-64 0 -165 35 -239 83 -77 49 -109 112 -117 222 l-4 72 53 -1 c29 -1 55 1 58
5 7 8 97 71 103 71 2 0 2 -20 -1 -45 -5 -51 9 -75 59 -95 60 -25 83 35 49 125
-6 15 -9 29 -8 29 2 1 31 8 64 14 48 10 73 10 115 0 30 -6 58 -11 62 -10 5 2
6 -2 2 -7 -4 -7 -15 -7 -31 -1 -32 13 -44 13 -44 0 0 -5 13 -10 28 -10 15 0
33 -5 40 -12 9 -9 12 -9 12 0 0 21 14 12 44 -28 24 -33 35 -40 60 -38 31 1 30
1 -4 6 l-35 5 35 7 35 7 -35 2 c-31 1 -36 5 -38 28 -1 14 1 24 4 21 5 -6 44
26 44 36 0 2 -10 2 -22 0 -21 -4 -22 -4 -3 5 27 13 33 13 38 -1z m-496 -42
c-74 -51 -77 -51 -77 -11 l0 35 56 0 57 0 -36 -24z m-289 -46 c4 -13 3 -13
-11 -2 -14 12 -17 9 -26 -20 -6 -23 -9 -27 -10 -11 -1 33 10 54 27 51 8 -2 18
-10 20 -18z m-463 -44 c66 -7 168 -11 228 -8 92 4 107 2 107 -11 0 -9 6 -20
13 -24 17 -10 52 -63 42 -63 -4 0 -25 16 -47 36 -36 32 -41 34 -61 21 -72 -48
-79 -108 -34 -282 l34 -130 -66 22 c-87 29 -136 29 -197 -2 -27 -14 -53 -25
-58 -25 -5 0 -28 21 -51 46 -42 45 -45 46 -94 43 -28 -2 -51 -2 -51 0 0 2 14
19 30 38 47 53 39 92 -22 107 l-27 6 34 58 c48 82 52 106 24 126 -13 9 -36 16
-52 16 -41 0 -29 24 16 31 21 3 41 9 45 13 4 4 20 5 37 2 16 -4 84 -12 150
-20z m505 -37 c0 -5 -4 -9 -10 -9 -5 0 -10 7 -10 16 0 8 5 12 10 9 6 -3 10
-10 10 -16z m-78 -21 c-8 -8 -9 -4 -5 13 4 13 8 18 11 10 2 -7 -1 -18 -6 -23z
m838 12 c0 -5 -5 -10 -11 -10 -5 0 -7 5 -4 10 3 6 8 10 11 10 2 0 4 -4 4 -10z
m-1 -46 c2 -2 -3 -4 -13 -4 -9 0 -14 -4 -11 -10 3 -5 2 -10 -4 -10 -6 0 -15 9
-21 20 -10 19 -9 20 17 14 15 -4 30 -8 32 -10z m-805 -15 c-3 -5 -11 -6 -17
-3 -7 4 17 -23 53 -60 35 -36 70 -66 77 -66 7 0 13 -4 13 -10 0 -19 -17 -10
-97 57 -81 66 -81 67 -60 84 22 17 43 16 31 -2z m116 -49 c-1 -13 -2 -13 -13
1 -7 9 -19 14 -27 12 -10 -3 -8 1 4 11 21 17 36 7 36 -24z m263 -199 c17 -6
16 -8 -7 -19 -15 -6 -26 -7 -26 -2 0 5 -8 7 -17 4 -15 -5 -15 -3 1 10 22 18
23 18 49 7z"/>
<path d="M1605 890 c-3 -5 3 -10 14 -10 12 0 21 5 21 10 0 6 -6 10 -14 10 -8
0 -18 -4 -21 -10z"/>
<path d="M1548 761 c-60 -24 -125 -64 -111 -68 6 -2 34 10 61 27 71 44 142 57
233 42 79 -12 99 -9 55 8 -45 17 -185 11 -238 -9z"/>
<path d="M1595 705 c-22 -8 -41 -15 -42 -15 -2 0 -3 -6 -3 -14 0 -34 121 -26
151 10 27 33 -35 44 -106 19z m93 -4 c10 -6 2 -13 -27 -25 -49 -19 -85 -21
-75 -4 5 8 1 9 -12 4 -14 -5 -16 -4 -7 4 21 22 99 35 121 21z"/>
<path d="M1648 693 c6 -2 18 -2 25 0 6 3 1 5 -13 5 -14 0 -19 -2 -12 -5z"/>
<path d="M1608 683 c7 -3 16 -2 19 1 4 3 -2 6 -13 5 -11 0 -14 -3 -6 -6z"/>
<path d="M1347 693 c-12 -15 -13 -20 -2 -30 10 -10 15 -10 23 0 11 14 12 47 2
47 -4 0 -14 -8 -23 -17z"/>
<path d="M1374 649 c-3 -6 -3 -13 0 -16 3 -4 6 0 7 8 0 8 3 6 8 -5 6 -17 8
-17 14 -4 7 18 -19 33 -29 17z"/>
<path d="M725 1680 c-3 -6 1 -7 9 -4 18 7 21 14 7 14 -6 0 -13 -4 -16 -10z"/>
<path d="M760 1680 c0 -5 7 -7 15 -4 8 4 15 8 15 10 0 2 -7 4 -15 4 -8 0 -15
-4 -15 -10z"/>
<path d="M1304 1683 c11 -3 36 -16 55 -28 29 -19 47 -23 89 -21 51 3 72 -11
32 -21 -11 -3 -20 -12 -20 -20 0 -12 2 -12 16 1 8 9 22 16 29 16 8 0 12 6 9
14 -3 8 -1 17 5 21 6 3 11 15 11 25 0 17 -7 19 -45 18 -25 -1 -39 -6 -32 -10
7 -4 24 -5 40 -2 31 6 37 -10 8 -25 -21 -12 -87 3 -112 25 -8 8 -20 14 -25 14
-5 0 2 -9 16 -20 33 -26 14 -26 -25 0 -16 11 -39 19 -50 19 -19 -1 -19 -2 -1
-6z m123 -39 c-3 -3 -12 -4 -19 -1 -8 3 -5 6 6 6 11 1 17 -2 13 -5z"/>
<path d="M1936 1635 c4 -8 10 -15 15 -15 4 0 6 7 3 15 -4 8 -10 15 -15 15 -4
0 -6 -7 -3 -15z"/>
<path d="M1976 1635 c4 -8 8 -15 10 -15 2 0 4 7 4 15 0 8 -4 15 -10 15 -5 0
-7 -7 -4 -15z"/>
<path d="M950 1604 c-25 -7 -58 -14 -75 -15 -16 0 -24 -3 -18 -6 10 -3 10 -10
2 -26 -9 -21 -9 -21 5 -4 16 20 85 45 161 57 49 7 49 8 10 8 -22 0 -60 -6 -85
-14z"/>
<path d="M1425 1601 c-3 -5 -1 -12 5 -16 5 -3 10 1 10 9 0 18 -6 21 -15 7z"/>
<path d="M1717 1570 c3 -11 9 -20 15 -20 5 0 4 9 -2 20 -6 11 -12 20 -14 20
-2 0 -2 -9 1 -20z"/>
<path d="M1666 1565 c4 -8 10 -15 15 -15 4 0 6 7 3 15 -4 8 -10 15 -15 15 -4
0 -6 -7 -3 -15z"/>
<path d="M1750 1566 c0 -9 5 -16 10 -16 6 0 10 4 10 9 0 6 -4 13 -10 16 -5 3
-10 -1 -10 -9z"/>
<path d="M1940 1573 c0 -4 5 -15 10 -23 8 -13 10 -13 10 2 0 9 -4 20 -10 23
-5 3 -10 3 -10 -2z"/>
<path d="M1980 1559 c7 -11 14 -19 16 -16 7 7 -7 37 -17 37 -6 0 -5 -9 1 -21z"/>
<path d="M2021 1544 c0 -11 3 -14 6 -6 3 7 2 16 -1 19 -3 4 -6 -2 -5 -13z"/>
<path d="M1130 1525 c-7 -9 -10 -18 -7 -21 3 -3 10 4 17 15 13 25 8 27 -10 6z"/>
<path d="M1451 1524 c0 -11 3 -14 6 -6 3 7 2 16 -1 19 -3 4 -6 -2 -5 -13z"/>
<path d="M851 1521 c-8 -5 5 -7 35 -4 68 6 77 11 24 12 -25 0 -51 -3 -59 -8z"/>
<path d="M1157 1523 c-4 -3 -7 -11 -7 -17 0 -6 5 -5 12 2 6 6 9 14 7 17 -3 3
-9 2 -12 -2z"/>
<path d="M1920 1496 c0 -8 5 -18 10 -21 6 -3 10 1 10 9 0 8 -4 18 -10 21 -5 3
-10 -1 -10 -9z"/>
<path d="M1960 1498 c0 -9 5 -20 10 -23 13 -8 13 5 0 25 -8 13 -10 13 -10 -2z"/>
<path d="M771 1480 c-12 -11 -28 -17 -34 -13 -6 3 -7 1 -3 -5 9 -15 -6 -16
-21 -1 -8 8 -13 8 -17 0 -4 -6 1 -11 11 -12 14 0 12 -3 -6 -10 -13 -5 -31 -7
-41 -4 -10 3 -17 0 -17 -9 0 -12 7 -12 41 -2 39 12 126 61 126 71 0 10 -16 4
-39 -15z"/>
<path d="M843 1483 c9 -2 23 -2 30 0 6 3 -1 5 -18 5 -16 0 -22 -2 -12 -5z"/>
<path d="M890 1475 c-7 -9 -8 -15 -2 -15 5 0 12 7 16 15 3 8 4 15 2 15 -2 0
-9 -7 -16 -15z"/>
<path d="M2010 1483 c0 -4 5 -15 10 -23 8 -13 10 -13 10 2 0 9 -4 20 -10 23
-5 3 -10 3 -10 -2z"/>
<path d="M755 1436 c-52 -24 -85 -65 -85 -107 0 -18 5 -13 23 21 17 36 35 52
82 77 69 37 55 43 -20 9z"/>
<path d="M1860 1445 c0 -8 4 -15 10 -15 5 0 7 7 4 15 -4 8 -8 15 -10 15 -2 0
-4 -7 -4 -15z"/>
<path d="M1910 1445 c0 -8 4 -15 10 -15 5 0 7 7 4 15 -4 8 -8 15 -10 15 -2 0
-4 -7 -4 -15z"/>
<path d="M1126 1435 c-3 -8 -1 -15 4 -15 6 0 10 7 10 15 0 8 -2 15 -4 15 -2 0
-6 -7 -10 -15z"/>
<path d="M1171 1434 c0 -11 3 -14 6 -6 3 7 2 16 -1 19 -3 4 -6 -2 -5 -13z"/>
<path d="M1950 1429 c7 -11 14 -19 16 -16 7 7 -7 37 -17 37 -6 0 -5 -9 1 -21z"/>
<path d="M1087 1420 c-3 -11 -1 -20 4 -20 5 0 9 9 9 20 0 11 -2 20 -4 20 -2 0
-6 -9 -9 -20z"/>
<path d="M1990 1433 c0 -4 5 -15 10 -23 8 -13 10 -13 10 2 0 9 -4 20 -10 23
-5 3 -10 3 -10 -2z"/>
<path d="M587 1419 c7 -7 15 -10 18 -7 3 3 -2 9 -12 12 -14 6 -15 5 -6 -5z"/>
<path d="M2040 1401 c0 -5 5 -13 10 -16 6 -3 10 -2 10 4 0 5 -4 13 -10 16 -5
3 -10 2 -10 -4z"/>
<path d="M1111 1333 c0 -25 1 -26 9 -8 12 27 12 35 0 35 -5 0 -10 -12 -9 -27z"/>
<path d="M1728 1341 c-47 -3 -90 -10 -95 -15 -4 -5 11 -6 37 -2 25 3 90 7 145
8 65 1 90 4 70 8 -34 9 -39 9 -157 1z"/>
<path d="M1057 1316 c-4 -10 -5 -21 -2 -24 9 -9 17 6 13 25 -3 17 -4 17 -11
-1z"/>
<path d="M2595 1320 c-11 -5 -36 -9 -55 -9 -45 -1 -140 -23 -140 -33 0 -5 -5
-8 -11 -8 -6 0 -8 10 -5 23 3 12 3 16 0 9 -7 -15 -67 -46 -109 -56 -34 -9 -55
-23 -55 -39 0 -5 9 -2 19 7 22 20 83 38 123 38 14 -1 32 5 38 13 7 8 22 15 34
15 19 -1 18 -3 -9 -25 -16 -14 -25 -25 -20 -25 18 0 71 49 55 51 -26 2 33 17
75 18 22 1 54 8 70 16 32 14 23 19 -10 5z"/>
<path d="M361 1311 c-21 -13 -25 -52 -5 -44 8 3 13 11 11 17 -2 6 3 16 12 23
18 14 3 17 -18 4z"/>
<path d="M492 1275 c-12 -26 -18 -44 -12 -40 14 9 42 64 38 76 -2 6 -14 -11
-26 -36z"/>
<path d="M2154 1313 c23 -4 26 -7 15 -15 -11 -8 -10 -9 4 -4 10 3 27 6 38 6
10 0 19 3 19 8 0 4 -24 7 -53 8 -28 0 -39 -1 -23 -3z"/>
<path d="M1360 1303 c-61 -24 -163 -77 -152 -80 7 -3 18 0 25 5 7 5 44 22 82
37 71 28 101 46 75 44 -8 0 -22 -3 -30 -6z"/>
<path d="M2065 1290 c-8 -13 5 -13 25 0 13 8 13 10 -2 10 -9 0 -20 -4 -23 -10z"/>
<path d="M2500 1263 c-14 -9 -27 -18 -29 -19 -1 -1 0 -7 4 -13 4 -8 12 -8 26
0 12 6 18 13 15 16 -3 4 -1 12 5 20 15 17 9 16 -21 -4z m10 -17 c0 -2 -7 -7
-16 -10 -8 -3 -12 -2 -9 4 6 10 25 14 25 6z"/>
<path d="M1701 1259 c-13 -5 -22 -11 -19 -14 5 -5 78 14 78 20 0 8 -33 4 -59
-6z"/>
<path d="M1770 1253 c-8 -3 -26 -10 -39 -15 -36 -13 -20 -19 22 -7 20 5 37 14
37 19 0 6 -1 10 -2 9 -2 0 -10 -3 -18 -6z"/>
<path d="M1928 1243 c-10 -2 -18 -8 -18 -13 0 -8 57 6 69 16 6 5 -29 3 -51 -3z"/>
<path d="M1780 1228 c-19 -5 -39 -14 -45 -20 -7 -7 -4 -8 10 -5 11 4 32 9 48
13 15 3 27 10 27 15 0 5 -1 9 -2 8 -2 0 -19 -5 -38 -11z"/>
<path d="M1625 1220 c-8 -13 15 -13 35 0 12 8 11 10 -7 10 -12 0 -25 -4 -28
-10z"/>
<path d="M2275 1220 c-19 -8 -19 -9 3 -9 12 -1 22 4 22 9 0 6 -1 10 -2 9 -2 0
-12 -4 -23 -9z"/>
<path d="M1164 1204 c-18 -14 -18 -15 4 -4 12 6 22 13 22 15 0 8 -5 6 -26 -11z"/>
<path d="M1960 1213 c-8 -3 -26 -10 -39 -15 -36 -13 -20 -19 22 -7 20 5 37 14
37 19 0 6 -1 10 -2 9 -2 0 -10 -3 -18 -6z"/>
<path d="M2300 1203 l-25 -15 30 7 c17 3 34 11 40 16 14 14 -17 9 -45 -8z"/>
<path d="M2170 1190 c-19 -11 -31 -19 -27 -20 5 0 18 5 30 11 18 10 25 8 49
-22 15 -18 28 -28 28 -23 0 6 -11 23 -24 37 -13 14 -21 28 -18 31 9 10 -2 6
-38 -14z"/>
<path d="M2340 1194 c-17 -10 -20 -14 -8 -14 23 0 48 11 48 21 0 12 -9 10 -40
-7z"/>
<path d="M1630 1191 c0 -5 9 -7 20 -4 11 3 20 7 20 9 0 2 -9 4 -20 4 -11 0
-20 -4 -20 -9z"/>
<path d="M1760 1187 c-19 -5 -28 -12 -20 -14 9 -2 33 3 55 11 46 17 17 20 -35
3z"/>
<path d="M1348 1173 c7 -3 16 -2 19 1 4 3 -2 6 -13 5 -11 0 -14 -3 -6 -6z"/>
<path d="M1668 1173 c-16 -2 -28 -8 -28 -12 0 -4 14 -6 30 -3 17 2 30 8 30 13
0 5 -1 8 -2 8 -2 -1 -15 -4 -30 -6z"/>
<path d="M1527 1150 c-6 -22 8 -26 33 -10 12 8 12 10 -5 11 -20 0 -20 0 0 9
19 8 19 9 -1 9 -14 1 -24 -7 -27 -19z"/>
<path d="M1770 1160 c-13 -9 -13 -10 0 -9 8 1 26 5 40 9 l25 8 -25 1 c-14 0
-32 -4 -40 -9z"/>
<path d="M2056 1155 c-11 -8 -15 -15 -10 -15 6 0 19 7 30 15 10 8 15 14 9 14
-5 0 -19 -6 -29 -14z"/>
<path d="M1200 1151 c0 -5 9 -7 20 -4 11 3 20 7 20 9 0 2 -9 4 -20 4 -11 0
-20 -4 -20 -9z"/>
<path d="M1330 1151 c0 -5 9 -7 20 -4 11 3 20 7 20 9 0 2 -9 4 -20 4 -11 0
-20 -4 -20 -9z"/>
<path d="M1811 1149 c-18 -6 -31 -12 -29 -15 8 -7 68 8 68 17 0 5 -1 9 -2 8
-2 0 -18 -5 -37 -10z"/>
<path d="M1675 1143 c-11 -3 -24 -10 -30 -15 -7 -8 -4 -9 8 -4 10 3 27 6 38 6
10 0 19 5 19 10 0 10 -3 11 -35 3z"/>
<path d="M2005 1140 c-9 -14 -133 -70 -159 -71 -16 -1 -17 -2 -4 -6 11 -3 15
-10 11 -20 -4 -11 1 -9 16 6 19 19 25 20 39 9 15 -11 16 -11 4 4 -11 14 -7 18
32 33 38 15 92 55 73 55 -3 0 -9 -5 -12 -10z"/>
<path d="M1140 1120 c-12 -8 -12 -10 5 -9 11 0 29 4 40 9 18 8 18 9 -5 9 -14
0 -32 -4 -40 -9z"/>
<path d="M1030 1110 c8 -5 24 -10 34 -10 26 0 18 6 -19 14 -22 5 -26 4 -15 -4z"/>
<path d="M1755 1110 c-18 -8 -18 -9 5 -9 14 0 34 4 45 9 18 8 18 9 -5 9 -14 0
-34 -4 -45 -9z"/>
<path d="M1615 1100 c-7 -12 12 -12 40 0 18 8 17 9 -7 9 -15 1 -30 -3 -33 -9z"/>
<path d="M1115 1090 c-4 -7 3 -8 22 -4 38 9 42 14 10 14 -14 0 -29 -5 -32 -10z"/>
<path d="M1000 1081 c0 -5 9 -7 20 -4 11 3 20 7 20 9 0 2 -9 4 -20 4 -11 0
-20 -4 -20 -9z"/>
<path d="M1303 1083 c9 -2 23 -2 30 0 6 3 -1 5 -18 5 -16 0 -22 -2 -12 -5z"/>
<path d="M1080 1060 c0 -13 11 -13 30 0 12 8 11 10 -7 10 -13 0 -23 -4 -23
-10z"/>
<path d="M1260 1060 c0 -5 11 -10 24 -10 14 0 28 5 31 10 4 6 -7 10 -24 10
-17 0 -31 -4 -31 -10z"/>
<path d="M1790 1043 c0 -10 4 -14 8 -8 4 6 11 13 16 18 5 4 2 7 -7 7 -10 0
-17 -8 -17 -17z"/>
<path d="M2043 1020 c-3 -11 -11 -20 -18 -20 -14 0 -31 -58 -40 -137 -6 -46
-5 -51 12 -49 21 3 28 28 14 53 -17 32 55 143 74 113 8 -13 -25 -61 -36 -54
-5 3 -9 0 -9 -5 0 -21 26 -11 43 17 l18 27 -5 -27 c-4 -15 -11 -40 -17 -55
-11 -28 -11 -28 -20 -5 -9 23 -33 29 -45 11 -4 -8 0 -9 15 -4 18 5 21 2 21
-24 0 -29 -43 -77 -60 -66 -4 2 -15 -14 -24 -38 -17 -46 -101 -144 -118 -139
-7 2 -7 -2 1 -12 9 -11 9 -16 0 -22 -8 -5 -10 -2 -5 7 4 8 -6 -2 -23 -21 -39
-43 -39 -55 -1 -35 31 16 41 29 15 19 -27 -11 -16 5 15 21 17 9 28 20 26 24
-3 5 3 16 13 25 18 17 19 16 26 -13 6 -29 10 -31 49 -31 111 0 314 40 515 101
84 25 117 24 158 -7 30 -23 33 -30 33 -77 0 -29 -7 -122 -15 -207 -8 -85 -18
-200 -21 -255 l-7 -101 27 -17 c22 -15 48 -17 189 -14 l162 3 -166 2 c-144 2
-168 4 -181 20 -15 18 -13 90 11 352 6 63 14 148 17 187 l7 73 -39 35 c-51 47
-78 46 -278 -9 -131 -37 -341 -76 -403 -76 -7 0 -13 11 -13 26 0 23 2 25 15
14 21 -18 30 -5 26 36 -2 29 5 42 43 85 26 28 49 62 52 75 7 28 19 31 33 7 17
-31 24 -6 13 44 l-11 48 3 -43 c4 -37 2 -41 -11 -31 -9 8 -12 21 -8 38 10 43
21 44 49 6 33 -43 47 -45 43 -5 -5 38 -17 52 -17 19 -1 -23 -2 -23 -29 11 -16
19 -31 33 -34 30 -2 -3 -12 -29 -22 -58 -23 -71 -74 -146 -102 -150 -36 -5
-30 33 6 46 36 13 73 68 97 144 16 53 16 58 0 82 -20 31 -56 34 -63 6z m51 -6
c9 -8 16 -25 15 -37 -1 -20 -1 -20 -12 4 -10 22 -16 25 -35 18 -20 -8 -21 -7
-12 11 13 24 23 25 44 4z m-65 -55 c-13 -26 -23 -18 -14 10 3 12 11 19 16 16
5 -4 5 -14 -2 -26z m-26 -119 c3 -11 1 -18 -4 -14 -5 3 -9 12 -9 20 0 20 7 17
13 -6z m-2 -123 c-6 -6 -11 -29 -11 -51 0 -31 -3 -37 -12 -28 -19 19 -28 14
-28 -13 0 -18 -4 -23 -15 -19 -34 13 -6 104 31 104 8 0 11 6 8 14 -4 11 0 13
16 9 15 -4 18 -9 11 -16z"/>
<path d="M628 933 c7 -3 16 -2 19 1 4 3 -2 6 -13 5 -11 0 -14 -3 -6 -6z"/>
<path d="M840 920 c0 -12 8 -12 35 0 18 8 17 9 -7 9 -16 1 -28 -3 -28 -9z"/>
<path d="M940 926 c0 -2 7 -6 15 -10 8 -3 15 -1 15 4 0 6 -7 10 -15 10 -8 0
-15 -2 -15 -4z"/>
<path d="M380 810 c-11 -8 -7 -9 15 -4 37 8 45 14 19 14 -10 0 -26 -5 -34 -10z"/>
<path d="M293 758 c-43 -46 -64 -90 -126 -268 -70 -198 -91 -250 -133 -329
-18 -36 -32 -67 -29 -69 10 -10 119 238 169 384 63 187 83 231 131 279 20 19
32 35 27 35 -4 0 -22 -15 -39 -32z"/>
<path d="M2593 628 c-46 -52 -92 -144 -103 -208 -17 -95 -57 -215 -101 -303
-21 -43 -39 -83 -39 -89 0 -19 85 161 108 229 12 34 29 100 38 148 15 73 26
99 70 166 28 43 51 79 50 79 -2 0 -12 -10 -23 -22z"/>
<path d="M395 619 c-4 -6 -5 -12 -2 -15 2 -3 7 2 10 11 7 17 1 20 -8 4z"/>
<path d="M1181 610 c0 -8 13 -40 29 -70 16 -30 29 -50 29 -45 0 17 -57 131
-58 115z"/>
<path d="M2338 613 c6 -2 18 -2 25 0 6 3 1 5 -13 5 -14 0 -19 -2 -12 -5z"/>
<path d="M363 553 c-9 -21 -19 -41 -21 -45 -2 -5 1 -8 6 -8 6 0 17 20 25 45
19 55 14 59 -10 8z"/>
<path d="M1896 518 c-7 -83 5 -208 29 -286 25 -83 29 -55 4 34 -16 61 -21 107
-20 202 0 67 -2 122 -3 122 -2 0 -7 -33 -10 -72z"/>
<path d="M1931 549 c13 -8 88 -14 78 -5 -2 2 -24 6 -48 9 -29 4 -40 2 -30 -4z"/>
<path d="M2218 555 c-3 -3 -50 -10 -104 -15 -98 -9 -98 -9 -14 -5 47 2 117 7
157 11 68 6 73 5 97 -19 29 -29 32 -62 15 -166 -9 -55 -28 -108 -116 -311 -8
-19 -10 -30 -5 -25 6 6 36 70 67 142 88 206 99 357 28 384 -26 10 -116 12
-125 4z"/>
<path d="M1638 493 c7 -3 16 -2 19 1 4 3 -2 6 -13 5 -11 0 -14 -3 -6 -6z"/>
<path d="M1556 481 c-4 -6 -5 -11 -2 -11 2 0 13 -3 23 -6 15 -5 16 -4 3 6 -12
9 -8 10 20 5 19 -4 43 -9 53 -11 9 -3 17 -1 17 5 0 6 -11 11 -24 11 -13 0 -37
3 -54 6 -17 4 -32 1 -36 -5z"/>
<path d="M1244 465 c14 -36 36 -137 45 -201 l10 -69 -5 78 c-5 72 -37 207 -50
207 -4 0 -3 -7 0 -15z"/>
<path d="M1630 450 c8 -5 22 -9 30 -9 10 0 8 3 -5 9 -27 12 -43 12 -25 0z"/>
<path d="M1576 429 c3 -6 17 -8 29 -5 14 4 25 1 28 -7 2 -6 8 -9 12 -4 13 11
-2 20 -41 23 -22 2 -32 -1 -28 -7z"/>
<path d="M275 377 c-21 -51 -18 -59 6 -14 11 22 18 41 15 44 -3 4 -13 -10 -21
-30z"/>
<path d="M1625 386 c17 -8 32 -12 34 -10 7 7 -3 12 -34 18 l-30 6 30 -14z"/>
<path d="M540 374 c0 -6 7 -19 16 -30 14 -18 14 -18 3 6 -14 31 -19 36 -19 24z"/>
<path d="M740 333 c14 -9 70 -59 124 -110 55 -51 101 -91 104 -89 2 3 -13 20
-34 38 -22 18 -66 59 -99 90 -69 65 -96 87 -110 88 -5 0 2 -8 15 -17z"/>
<path d="M975 340 c-3 -5 -1 -10 4 -10 6 0 11 5 11 10 0 6 -2 10 -4 10 -3 0
-8 -4 -11 -10z"/>
<path d="M650 331 c0 -6 4 -13 10 -16 6 -3 7 1 4 9 -7 18 -14 21 -14 7z"/>
<path d="M1470 321 c0 -6 4 -12 10 -16 5 -3 7 -12 4 -19 -3 -7 2 -16 10 -19
20 -8 22 33 4 51 -14 14 -28 16 -28 3z"/>
<path d="M254 283 c-22 -33 -46 -85 -41 -90 2 -2 18 24 35 57 34 64 36 78 6
33z"/>
<path d="M981 274 c0 -11 3 -14 6 -6 3 7 2 16 -1 19 -3 4 -6 -2 -5 -13z"/>
<path d="M1940 275 c0 -6 17 -26 38 -45 20 -20 52 -53 70 -75 17 -22 32 -34
32 -28 0 14 -139 162 -140 148z"/>
<path d="M709 247 c6 -8 7 -18 3 -23 -4 -5 -3 -6 2 -1 5 4 23 -5 40 -20 18
-17 15 -10 -9 15 -36 39 -61 59 -36 29z"/>
<path d="M160 123 c-25 -31 -52 -65 -60 -77 -14 -21 -14 -21 8 -2 28 25 106
125 101 131 -3 2 -25 -21 -49 -52z"/>
<path d="M841 119 c49 -47 119 -98 119 -86 0 2 -19 17 -41 32 -23 15 -62 45
-88 67 -31 27 -28 23 10 -13z"/>
<path d="M1411 124 c0 -11 3 -14 6 -6 3 7 2 16 -1 19 -3 4 -6 -2 -5 -13z"/>
<path d="M1105 110 c-3 -5 -2 -10 4 -10 5 0 13 5 16 10 3 6 2 10 -4 10 -5 0
-13 -4 -16 -10z"/>
<path d="M1835 77 c-18 -42 -18 -47 -6 -47 11 0 35 69 27 77 -3 3 -13 -10 -21
-30z"/>
<path d="M2073 88 c2 -15 0 -25 -4 -22 -8 5 -13 -17 -10 -38 1 -9 -30 -17 -89
-21 -37 -3 -34 -4 17 -5 56 -2 64 1 82 24 23 30 26 51 10 74 -8 12 -10 9 -6
-12z"/>
<path d="M2090 107 c0 -4 14 -26 31 -50 l31 -42 -44 -6 c-24 -3 88 -6 247 -5
286 1 287 1 50 3 l-241 3 -17 28 c-23 38 -57 79 -57 69z"/>
<path d="M677 70 c3 -10 11 -24 19 -31 10 -8 10 -3 -2 20 -18 35 -24 40 -17
11z"/>
<path d="M1866 74 c-3 -9 -6 -23 -6 -32 1 -12 5 -10 15 8 8 14 14 28 15 33 0
13 -18 7 -24 -9z"/>
<path d="M1890 50 c-6 -12 -9 -24 -7 -27 3 -2 11 5 17 17 6 12 9 24 7 27 -3 2
-11 -5 -17 -17z"/>
<path d="M1115 50 c3 -5 8 -10 11 -10 2 0 4 5 4 10 0 6 -5 10 -11 10 -5 0 -7
-4 -4 -10z"/>
<path d="M1828 3 c17 -2 47 -2 65 0 17 2 3 4 -33 4 -36 0 -50 -2 -32 -4z"/>
</g>
</svg>
